<svg width="406" height="306" viewBox="0 0 406 306" fill="none" xmlns="http://www.w3.org/2000/svg">
<path opacity="0.45" d="M210.663 272.232C302.978 272.232 377.814 267.061 377.814 260.682C377.814 254.302 302.978 249.131 210.663 249.131C118.349 249.131 43.5132 254.302 43.5132 260.682C43.5132 267.061 118.349 272.232 210.663 272.232Z" fill="#E6E6E6"/>
<path d="M113.558 183.369L104.545 212.114C103.331 215.991 101.33 219.575 98.6663 222.642C96.0027 225.709 92.7344 228.192 89.0661 229.937L75.8711 236.22L76.3989 240.118L96.1508 235.855C100.784 234.483 105.08 232.161 108.766 229.036C112.452 225.911 115.446 222.053 117.557 217.707L131.503 188.992L113.558 183.369Z" fill="#F4A28C"/>
<path opacity="0.19" d="M304.723 249.09C304.723 249.09 295.66 246.613 293.69 238.179C293.69 238.179 307.728 235.347 308.134 249.841L304.723 249.09Z" fill="#94FC7D"/>
<path opacity="0.51" d="M305.84 248.197C305.84 248.197 299.506 238.189 305.079 228.831C305.079 228.831 315.757 235.611 311.006 248.218L305.84 248.197Z" fill="#94FC7D"/>
<path d="M307.464 248.197C307.464 248.197 310.813 237.63 320.923 235.631C320.923 235.631 322.821 242.492 314.376 248.227L307.464 248.197Z" fill="#94FC7D"/>
<path d="M300.896 247.964L302.734 260.53L314.305 260.58L316.01 248.025L300.896 247.964Z" fill="#24285B"/>
<path d="M285.215 95.165H185.674V260.742H285.215V95.165Z" fill="#212527" fill-opacity="0.48"/>
<path d="M276.648 30.3218L178.427 46.4766L184.637 84.2348L282.858 68.08L276.648 30.3218Z" fill="#212527" fill-opacity="0.48"/>
<path d="M255.731 23.3674L197.108 32.8418L198.877 43.7846L257.5 34.3102L255.731 23.3674Z" fill="#94FC7D"/>
<path opacity="0.07" d="M267.392 144.484H203.315C198.107 144.484 193.886 148.706 193.886 153.914V161.536C193.886 166.744 198.107 170.966 203.315 170.966H267.392C272.6 170.966 276.821 166.744 276.821 161.536V153.914C276.821 148.706 272.6 144.484 267.392 144.484Z" fill="white"/>
<path d="M261.697 164.845C265.61 164.845 268.782 161.673 268.782 157.76C268.782 153.848 265.61 150.676 261.697 150.676C257.784 150.676 254.612 153.848 254.612 157.76C254.612 161.673 257.784 164.845 261.697 164.845Z" fill="#94FC7D"/>
<path d="M244.128 154.391H202.381V161.12H244.128V154.391Z" fill="white"/>
<path opacity="0.07" d="M267.392 105.914H203.315C198.107 105.914 193.886 110.136 193.886 115.343V122.966C193.886 128.174 198.107 132.395 203.315 132.395H267.392C272.6 132.395 276.821 128.174 276.821 122.966V115.343C276.821 110.136 272.6 105.914 267.392 105.914Z" fill="white"/>
<path d="M261.697 126.275C265.61 126.275 268.782 123.103 268.782 119.19C268.782 115.277 265.61 112.105 261.697 112.105C257.784 112.105 254.612 115.277 254.612 119.19C254.612 123.103 257.784 126.275 261.697 126.275Z" fill="#94FC7D"/>
<path d="M244.128 115.82H202.381V122.55H244.128V115.82Z" fill="white"/>
<path opacity="0.07" d="M260.765 39.7781L197.329 50.0304C192.174 50.8636 188.67 55.7185 189.503 60.8741L190.722 68.4205C191.556 73.5762 196.411 77.0801 201.566 76.2469L265.002 65.9946C270.158 65.1614 273.662 60.3065 272.829 55.1508L271.609 47.6044C270.776 42.4488 265.921 38.9448 260.765 39.7781Z" fill="white"/>
<path d="M256.551 60.1479C260.464 60.1479 263.636 56.976 263.636 53.0632C263.636 49.1504 260.464 45.9785 256.551 45.9785C252.639 45.9785 249.467 49.1504 249.467 53.0632C249.467 56.976 252.639 60.1479 256.551 60.1479Z" fill="#94FC7D"/>
<path d="M238.663 52.5822L197.47 59.3574L198.562 65.9977L239.755 59.2224L238.663 52.5822Z" fill="white"/>
<path opacity="0.07" d="M267.392 184.729H203.315C198.107 184.729 193.886 188.95 193.886 194.158V201.781C193.886 206.988 198.107 211.21 203.315 211.21H267.392C272.6 211.21 276.821 206.988 276.821 201.781V194.158C276.821 188.95 272.6 184.729 267.392 184.729Z" fill="white"/>
<path d="M261.697 205.089C265.61 205.089 268.782 201.917 268.782 198.005C268.782 194.092 265.61 190.92 261.697 190.92C257.784 190.92 254.612 194.092 254.612 198.005C254.612 201.917 257.784 205.089 261.697 205.089Z" fill="#94FC7D"/>
<path d="M244.128 194.636H202.381V201.365H244.128V194.636Z" fill="white"/>
<path opacity="0.07" d="M267.392 224.974H203.315C198.107 224.974 193.886 229.195 193.886 234.403V242.026C193.886 247.233 198.107 251.455 203.315 251.455H267.392C272.6 251.455 276.821 247.233 276.821 242.026V234.403C276.821 229.195 272.6 224.974 267.392 224.974Z" fill="white"/>
<path d="M261.697 245.334C265.61 245.334 268.782 242.163 268.782 238.25C268.782 234.337 265.61 231.165 261.697 231.165C257.784 231.165 254.612 234.337 254.612 238.25C254.612 242.163 257.784 245.334 261.697 245.334Z" fill="#94FC7D"/>
<path d="M244.128 234.88H202.381V241.609H244.128V234.88Z" fill="white"/>
<path d="M143.339 191.479L147.561 253.038L143.633 254.398L128.002 196.807L143.339 191.479Z" fill="#F4A28C"/>
<path d="M148.363 254.094C148.363 254.094 149.215 257.738 151.966 258.875C154.716 260.011 153.326 263.95 149.185 261.564C147.897 260.815 146.675 259.96 145.531 259.007C144.455 258.164 143.178 257.619 141.826 257.423C141.574 257.378 141.341 257.256 141.16 257.075C140.978 256.893 140.857 256.661 140.811 256.408C140.253 254.378 144.82 252.49 144.82 252.49L148.363 254.094Z" fill="#94FC7D"/>
<path d="M76.3889 240.117C76.3889 240.117 73.6078 242.249 73.689 245.03C73.7702 247.811 69.8523 248.146 70.3294 243.69C70.4727 242.318 70.7307 240.96 71.1008 239.63C71.4123 238.391 71.3878 237.091 71.0297 235.865C70.9798 235.625 71.0034 235.375 71.0976 235.149C71.1918 234.922 71.3521 234.73 71.5575 234.596C73.0699 233.358 76.4498 236.524 76.4498 236.524L76.3889 240.117Z" fill="#94FC7D"/>
<path d="M119.78 102.25L121.242 108.167L116.441 110.705L115.599 100.575L119.78 102.25Z" fill="#F4A28C"/>
<path d="M114.471 94.871C114.755 94.3411 115.166 93.8902 115.667 93.5591C116.168 93.228 116.745 93.0271 117.343 92.9747C117.942 92.9223 118.544 93.02 119.095 93.259C119.647 93.4979 120.13 93.8706 120.501 94.3432C122.277 96.5762 124.358 100.068 121.516 101.651C117.242 104.077 113.923 98.6062 113.923 98.6062C113.741 97.3344 113.931 96.0368 114.471 94.871Z" fill="#F4A28C"/>
<path d="M65.391 132.254L86.8105 159.699L106.198 144.568L84.7788 117.123L65.391 132.254Z" fill="#FFD200"/>
<path d="M94.7605 120.814C94.7605 120.814 74.0951 153.132 78.2262 157.892C91.3603 172.996 120.521 138.973 120.521 138.973L94.7605 120.814Z" fill="#F4A28C"/>
<path d="M141.511 115.993C135.581 111.663 128.458 109.267 121.115 109.135C113.773 109.002 106.568 111.139 100.485 115.252C95.0751 118.937 90.9035 124.387 92.8117 132.406C97.2878 151.082 111.599 163.394 112.097 179.827L145.977 177.553V156.401C145.969 154.4 146.375 152.419 147.169 150.583C147.964 148.747 149.131 147.096 150.596 145.733C153.549 143.013 156.483 138.577 154.473 132.477C152.646 127.067 148.028 120.774 141.511 115.993Z" fill="#94FC7D"/>
<path d="M117.161 98.6463C117.161 98.6463 116.146 97.6922 115.619 98.8899C115.091 100.088 116.837 100.829 117.435 100.25C118.034 99.6714 117.161 98.6463 117.161 98.6463Z" fill="#F4A28C"/>
<path opacity="0.08" d="M124.744 124.793C124.744 124.793 117.426 138.79 125.921 152.431C134.417 166.073 118.309 179.41 118.309 179.41L145.937 177.552V165.494C145.937 165.494 144.232 150.269 149.5 146.808C149.5 146.808 158.513 140.312 153.661 130.477C148.809 120.641 124.744 124.793 124.744 124.793Z" fill="black"/>
<path d="M110.635 116.46C111.285 113.932 114.299 109.355 110.046 101.042C109.153 99.2858 108.443 95.1751 110.138 92.3331C114.198 85.5224 120.673 87.8468 119.902 91.6632C119.131 95.4796 118.593 97.2964 118.593 97.2964C118.593 97.2964 130.894 106.117 129.098 112.623C127.504 118.358 107.894 126.955 110.635 116.46Z" fill="#24285B"/>
<path d="M110.564 171.179H145.936L151.57 220.122L99.0942 217.757L110.564 171.179Z" fill="#24285B"/>
<path d="M126.145 134.73C125.309 133.714 124.683 132.541 124.304 131.282C123.924 130.022 123.799 128.699 123.935 127.39C124.071 126.082 124.466 124.813 125.096 123.658C125.726 122.503 126.579 121.484 127.606 120.662C129.652 119.064 131.817 117.626 134.082 116.358C147.571 108.634 169.993 91.5617 179.432 68.0137C179.432 68.0137 181.645 59.4065 188.212 59.711C194.779 60.0155 192.515 68.1761 185.979 68.0949C185.979 68.0949 180.63 119.19 141.38 138.201C138.82 139.41 135.928 139.725 133.167 139.096C130.407 138.466 127.938 136.929 126.155 134.73H126.145Z" fill="#F4A28C"/>
<path d="M101.5 49.46V68.1055H113.548L116.187 75.5252L119.303 68.1055H131.351V49.46H101.5Z" fill="#E6E6E6"/>
<path opacity="0.12" d="M114.918 62.9495C114.783 62.9427 114.652 62.9065 114.533 62.8433C114.413 62.7802 114.309 62.6917 114.228 62.5841L111.071 58.5241C110.932 58.3281 110.873 58.0856 110.908 57.8474C110.942 57.6092 111.068 57.3936 111.258 57.2456C111.448 57.0976 111.687 57.0287 111.927 57.0532C112.166 57.0777 112.387 57.1938 112.543 57.3772L115.02 60.5642L121.11 53.9667C121.192 53.8749 121.293 53.8004 121.405 53.7476C121.516 53.6948 121.638 53.6647 121.761 53.6592C121.885 53.6536 122.008 53.6726 122.124 53.7151C122.24 53.7576 122.347 53.8228 122.438 53.9068C122.528 53.9908 122.602 54.0921 122.653 54.2046C122.704 54.3171 122.733 54.4387 122.737 54.5623C122.74 54.6859 122.72 54.8091 122.676 54.9247C122.632 55.0402 122.565 55.1459 122.48 55.2355L115.608 62.6653C115.519 62.7571 115.411 62.8297 115.293 62.8785C115.174 62.9274 115.046 62.9515 114.918 62.9495Z" fill="black"/>
</svg>
