<svg width="406" height="306" viewBox="0 0 406 306" fill="none" xmlns="http://www.w3.org/2000/svg">
<path d="M170.824 81.168H49.085V184.221H170.824V81.168Z" fill="#212527" fill-opacity="0.46"/>
<path d="M123.769 141.155H84.6611V145.53H123.769V141.155Z" fill="#94FC7D"/>
<path d="M130.834 128.975H95.877V133.349H130.834V128.975Z" fill="#C5FDB9"/>
<path d="M129.017 162.855H110.777V167.23H129.017V162.855Z" fill="#C5FDB9"/>
<path d="M142.476 151.731H95.877V156.106H142.476V151.731Z" fill="#94FC7D"/>
<path d="M87.6755 151.731H70.1465V156.106H87.6755V151.731Z" fill="white"/>
<path d="M105.134 163.231H87.6045V167.606H105.134V163.231Z" fill="white"/>
<path d="M76.4597 141.155H58.9307V145.53H76.4597V141.155Z" fill="white"/>
<path d="M57.0536 90.6082C58.1916 90.6082 59.1141 89.6857 59.1141 88.5478C59.1141 87.4098 58.1916 86.4873 57.0536 86.4873C55.9157 86.4873 54.9932 87.4098 54.9932 88.5478C54.9932 89.6857 55.9157 90.6082 57.0536 90.6082Z" fill="white"/>
<path d="M63.1835 90.6082C64.3215 90.6082 65.2439 89.6857 65.2439 88.5478C65.2439 87.4098 64.3215 86.4873 63.1835 86.4873C62.0455 86.4873 61.123 87.4098 61.123 88.5478C61.123 89.6857 62.0455 90.6082 63.1835 90.6082Z" fill="#68E1FD"/>
<path d="M68.9696 90.6082C70.1076 90.6082 71.0301 89.6857 71.0301 88.5478C71.0301 87.4098 70.1076 86.4873 68.9696 86.4873C67.8317 86.4873 66.9092 87.4098 66.9092 88.5478C66.9092 89.6857 67.8317 90.6082 68.9696 90.6082Z" fill="#FFD200"/>
<path d="M76.4597 107.873H58.9307V112.248H76.4597V107.873Z" fill="white"/>
<path d="M87.6755 118.825H70.1465V123.2H87.6755V118.825Z" fill="white"/>
<path d="M130.834 118.825H95.877V123.2H130.834V118.825Z" fill="#C5FDB9"/>
<path d="M87.6755 128.975H70.1465V133.349H87.6755V128.975Z" fill="white"/>
<path d="M119.567 107.873H83.4639V112.248H119.567V107.873Z" fill="#94FC7D"/>
<path d="M152.747 107.873H127.118V112.248H152.747V107.873Z" fill="#94FC7D"/>
<path d="M214.459 159.009C214.459 159.009 193.885 166.662 191.114 180.324C188.343 193.986 172.712 215.727 150.687 173.351L143.439 176.142C143.439 176.142 163.516 244.147 198.919 210.987C234.323 177.827 214.459 159.009 214.459 159.009Z" fill="#94FC7D"/>
<path opacity="0.46" d="M214.459 159.009C214.459 159.009 193.885 166.662 191.114 180.324C188.343 193.986 172.712 215.727 150.687 173.351L143.439 176.142C143.439 176.142 163.516 244.147 198.919 210.987C234.323 177.827 214.459 159.009 214.459 159.009Z" fill="white"/>
<path opacity="0.45" d="M237.277 258.154C297.073 258.154 345.547 253.578 345.547 247.933C345.547 242.288 297.073 237.712 237.277 237.712C177.481 237.712 129.007 242.288 129.007 247.933C129.007 253.578 177.481 258.154 237.277 258.154Z" fill="#E6E6E6"/>
<path d="M250.766 156.045C250.766 156.045 228.557 147.408 208.054 163.15C187.551 178.893 214.144 234.302 214.144 234.302L252.522 235.581C252.522 235.581 302.845 189.429 250.766 156.045Z" fill="#94FC7D"/>
<path opacity="0.08" d="M240.941 162.257C240.941 162.257 226.964 184.323 241.286 197.883C261.586 217.118 237.875 218.752 214.145 219.442L238.911 238.26L269.878 221.238L266.376 199.01L240.941 162.257Z" fill="black"/>
<path d="M219.849 232.261C234.587 232.749 238.383 231.652 251.994 225.999C260.256 222.558 270.061 220.132 277.572 223.238C293.457 229.805 280.78 255.627 240.017 249.384L202.381 247.689C202.381 247.689 187.938 247.689 185.38 242.503C182.264 236.179 188.79 229.612 218.875 232.231L219.849 232.261Z" fill="#24285B"/>
<path d="M219.667 135.928C219.524 138.893 219.784 141.863 220.438 144.758C220.538 145.098 220.704 145.414 220.927 145.689C221.15 145.964 221.425 146.192 221.736 146.36C222.048 146.528 222.389 146.632 222.742 146.667C223.094 146.703 223.449 146.668 223.788 146.565C224.898 146.306 225.909 145.731 226.7 144.91C227.49 144.088 228.027 143.056 228.243 141.937L229.665 137.207C229.857 136.225 229.737 135.208 229.322 134.298C228.907 133.388 228.218 132.63 227.35 132.132C224.255 130.122 219.657 132.7 219.667 135.928Z" fill="#F4A28C"/>
<path d="M229.4 138.069L232.821 155.233L223.219 156.441L224.589 143.469L229.4 138.069Z" fill="#F4A28C"/>
<path d="M220.996 136.1C222.646 136.099 224.291 135.908 225.898 135.532C225.451 136.276 225.231 137.134 225.266 138.001C225.3 138.869 225.587 139.707 226.091 140.414C226.568 141.108 227.271 141.615 228.08 141.848C228.889 142.081 229.754 142.026 230.527 141.693L230.171 134.831C230.155 133.849 229.873 132.889 229.355 132.054C228.837 131.219 228.101 130.541 227.228 130.091C226.474 129.7 225.694 129.361 224.893 129.076C222.863 128.356 220.052 129.787 218.235 128.518C218.051 128.387 217.836 128.307 217.611 128.285C217.386 128.264 217.159 128.301 216.954 128.395C216.748 128.489 216.571 128.634 216.439 128.818C216.308 129.002 216.227 129.217 216.205 129.442C215.971 131.543 216.469 134.811 219.341 135.846C219.875 136.02 220.434 136.105 220.996 136.1Z" fill="#24285B"/>
<path d="M225.513 140.272C225.513 140.272 225.513 138.242 227.025 138.313C228.537 138.384 228.649 141.358 226.558 141.744L225.513 140.272Z" fill="#F4A28C"/>
<path d="M219.676 139.298L218.225 141.409C218.147 141.53 218.1 141.668 218.089 141.811C218.078 141.954 218.103 142.097 218.162 142.228C218.22 142.359 218.31 142.474 218.424 142.561C218.538 142.648 218.672 142.706 218.813 142.729L220.843 143.033L219.676 139.298Z" fill="#F4A28C"/>
<path d="M236.891 222.771C236.891 222.771 225.208 221.025 225.574 228.181L236.333 229.104L236.891 222.771Z" fill="#F4A28C"/>
<path opacity="0.31" d="M224.173 146.291C225.359 145.942 226.418 145.254 227.218 144.312C227.218 144.312 227.218 147.519 223.808 150.808L224.173 146.291Z" fill="#CE8172"/>
<path d="M202.624 231.723L193.52 204.298H226.223L230.526 228.709L242.96 229.551V232.728L202.624 231.723Z" fill="#FFD200"/>
<path d="M212.105 220.832C214.156 220.832 215.819 219.169 215.819 217.117C215.819 215.066 214.156 213.402 212.105 213.402C210.053 213.402 208.39 215.066 208.39 217.117C208.39 219.169 210.053 220.832 212.105 220.832Z" fill="white"/>
<path d="M150.677 173.351C150.677 173.351 148.16 165.485 143.805 163.201C143.674 163.133 143.526 163.103 143.379 163.115C143.231 163.127 143.09 163.181 142.972 163.271C142.854 163.36 142.764 163.481 142.712 163.62C142.66 163.758 142.649 163.909 142.679 164.054L143.43 167.89C143.43 167.89 137.756 171.605 143.43 176.163L150.677 173.351Z" fill="#F4A28C"/>
<path d="M247.497 244.4C247.497 244.4 233.48 246.298 236.86 249.536C240.24 252.774 248.532 250.348 248.532 250.348L247.497 244.4Z" fill="#94FC7D"/>
<path d="M223.533 248.552L226.416 244.208C226.416 244.208 235.287 250.247 234.444 252.947C232.739 258.337 223.533 248.552 223.533 248.552Z" fill="#94FC7D"/>
<path d="M239.896 166.712C239.9 165.083 240.297 163.479 241.052 162.035C241.807 160.591 242.899 159.35 244.235 158.418C245.571 157.485 247.112 156.887 248.727 156.676C250.343 156.464 251.986 156.645 253.517 157.202C260.622 159.75 269.645 164.804 275.573 174.741C286.738 193.427 306.348 243.243 236.333 229.105L236.983 221.807C236.983 221.807 264.256 224.689 266.854 212.398C269.077 201.821 239.896 189.763 239.896 166.712Z" fill="#94FC7D"/>
<path opacity="0.46" d="M239.896 166.712C239.9 165.083 240.297 163.479 241.052 162.035C241.807 160.591 242.899 159.35 244.235 158.418C245.571 157.485 247.112 156.887 248.727 156.676C250.343 156.464 251.986 156.645 253.517 157.202C260.622 159.75 269.645 164.804 275.573 174.741C286.738 193.427 306.348 243.243 236.333 229.105L236.983 221.807C236.983 221.807 264.256 224.689 266.854 212.398C269.077 201.821 239.896 189.763 239.896 166.712Z" fill="white"/>
<path d="M343.081 70.5723H248.3V128.722H343.081V70.5723Z" fill="#E6E6E6"/>
<path opacity="0.58" d="M309.768 237.559C309.768 237.559 302.724 235.631 301.191 229.084C301.191 229.084 312.113 226.871 312.417 238.138L309.768 237.559Z" fill="#94FC7D"/>
<path opacity="0.73" d="M310.59 236.859C310.59 236.859 305.667 229.084 310.001 221.807C310.001 221.807 318.304 227.074 314.61 236.879L310.59 236.859Z" fill="#94FC7D"/>
<path d="M311.899 236.869C311.899 236.869 314.498 228.648 322.364 227.095C322.364 227.095 323.836 232.423 317.289 236.889L311.899 236.869Z" fill="#94FC7D"/>
<path d="M306.794 236.677L308.225 246.451L317.218 246.492L318.537 236.728L306.794 236.677Z" fill="#24285B"/>
<path d="M279.125 100.565L270.934 103.61L279.125 106.584V109.629L267.412 105.173V101.966L279.125 97.5098V100.565Z" fill="#A5A5A5"/>
<path d="M280.14 109.964L282.352 107.305C282.69 107.857 283.158 108.318 283.716 108.647C284.273 108.976 284.903 109.163 285.55 109.193C287.143 109.193 287.986 108.238 287.986 106.34V98.19H281.896V94.9521H291.903V106.117C291.903 110.37 289.762 112.461 285.702 112.461C284.646 112.495 283.596 112.288 282.632 111.856C281.668 111.423 280.816 110.776 280.14 109.964Z" fill="#A5A5A5"/>
<path d="M294.573 110.472L295.923 107.478C297.595 108.632 299.575 109.258 301.607 109.274C303.962 109.274 304.926 108.483 304.926 107.427C304.926 104.209 294.918 106.412 294.918 100.028C294.918 97.0942 297.273 94.6582 302.165 94.6582C304.258 94.6035 306.326 95.123 308.144 96.1604L306.916 99.2054C305.47 98.3459 303.826 97.8772 302.145 97.8453C299.78 97.8453 298.877 98.7385 298.877 99.8144C298.877 102.991 308.885 100.829 308.885 107.122C308.885 109.995 306.499 112.461 301.577 112.461C299.094 112.528 296.65 111.834 294.573 110.472Z" fill="#A5A5A5"/>
<path d="M322.77 101.966V105.163L311.057 109.619V106.574L319.248 103.6L311.057 100.555V97.5098L322.77 101.966Z" fill="#A5A5A5"/>
<path d="M255.983 81.4021C257.121 81.4021 258.044 80.4797 258.044 79.3417C258.044 78.2037 257.121 77.2812 255.983 77.2812C254.845 77.2812 253.923 78.2037 253.923 79.3417C253.923 80.4797 254.845 81.4021 255.983 81.4021Z" fill="#24285B"/>
<path d="M262.113 81.4021C263.251 81.4021 264.174 80.4797 264.174 79.3417C264.174 78.2037 263.251 77.2812 262.113 77.2812C260.975 77.2812 260.053 78.2037 260.053 79.3417C260.053 80.4797 260.975 81.4021 262.113 81.4021Z" fill="#68E1FD"/>
<path d="M267.899 81.4021C269.037 81.4021 269.96 80.4797 269.96 79.3417C269.96 78.2037 269.037 77.2812 267.899 77.2812C266.761 77.2812 265.839 78.2037 265.839 79.3417C265.839 80.4797 266.761 81.4021 267.899 81.4021Z" fill="#FFD200"/>
<path opacity="0.2" d="M323.399 76.2256H276.75V82.7013H323.399V76.2256Z" fill="#A5A5A5"/>
</svg>
