<svg width="406" height="306" viewBox="0 0 406 306" fill="none" xmlns="http://www.w3.org/2000/svg">
<path opacity="0.3" d="M103.418 60.1785C69.0197 69.486 41.7873 91.2984 37.4938 131.442C33.8804 165.272 40.6809 221.959 98.3938 233.256C154.219 244.198 355.615 265.97 368.861 194.849C376.392 154.391 377.235 85.7565 313.391 63.9137C270.112 49.0338 177.239 40.2236 103.418 60.1785Z" fill="#E6E6E6"/>
<path opacity="0.45" d="M268.335 264.295C323.854 264.295 368.861 259.796 368.861 254.246C368.861 248.697 323.854 244.198 268.335 244.198C212.816 244.198 167.81 248.697 167.81 254.246C167.81 259.796 212.816 264.295 268.335 264.295Z" fill="#E6E6E6"/>
<path opacity="0.45" d="M100.343 264.295C125.171 264.295 145.297 259.796 145.297 254.246C145.297 248.697 125.171 244.198 100.343 244.198C75.5154 244.198 55.3887 248.697 55.3887 254.246C55.3887 259.796 75.5154 264.295 100.343 264.295Z" fill="#E6E6E6"/>
<path d="M112.412 111.913C112.412 111.913 127.941 115.871 128.053 128.731C128.164 141.591 121.171 164.104 131.159 165.941C141.146 167.778 147.175 139.987 147.175 139.987L154.28 142.86C154.28 142.86 146.698 190.332 120.521 182.506C94.3446 174.68 112.412 111.913 112.412 111.913Z" fill="#C5FDB9"/>
<path opacity="0.44" d="M112.412 111.913C112.412 111.913 127.941 115.871 128.053 128.731C128.164 141.591 121.171 164.104 131.159 165.941C141.146 167.778 147.175 139.987 147.175 139.987L154.28 142.86C154.28 142.86 146.698 190.332 120.521 182.506C94.3446 174.68 112.412 111.913 112.412 111.913Z" fill="#94FC7D"/>
<path d="M148.778 140.658C148.778 140.658 149.184 133.786 151.945 131.827C154.706 129.868 154.239 134.872 154.239 134.872C154.239 134.872 157 131.655 159.314 133.147C161.628 134.639 154.239 142.911 154.239 142.911L148.778 140.658Z" fill="#F4A28C"/>
<path d="M99.693 83.7565C99.824 86.7943 99.5475 89.8359 98.8708 92.8002C98.7688 93.1513 98.5976 93.4784 98.3673 93.7623C98.1369 94.0462 97.8521 94.2811 97.5296 94.4532C97.207 94.6254 96.8533 94.7312 96.4893 94.7646C96.1252 94.798 95.7581 94.7582 95.4097 94.6475C94.2734 94.3749 93.2396 93.7811 92.4315 92.937C91.6234 92.0929 91.0752 91.0342 90.8523 89.8871L89.4212 85.0456C89.2428 84.0473 89.3783 83.0183 89.8092 82.1003C90.24 81.1823 90.9449 80.4205 91.8267 79.9198C94.9935 77.7985 99.7031 80.4172 99.693 83.7565Z" fill="#F4A28C"/>
<path d="M89.8279 87.5225L87.7979 105.336L97.6941 105.752L95.1972 92.6178L89.8279 87.5225Z" fill="#F4A28C"/>
<path d="M98.3234 83.9801C96.6142 83.9789 94.911 83.7779 93.2484 83.3812C93.7068 84.144 93.9319 85.0243 93.8958 85.9136C93.8598 86.8028 93.5641 87.662 93.0454 88.3852C92.775 88.7932 92.4238 89.1416 92.0136 89.4086C91.6034 89.6757 91.1427 89.8559 90.6602 89.9381C90.3941 89.9685 90.1245 89.94 89.8707 89.8546C89.6168 89.7693 89.3848 89.6291 89.1912 89.4442C88.9975 89.2592 88.8468 89.0339 88.7499 88.7842C88.6529 88.5346 88.6121 88.2667 88.6302 87.9995L88.9144 82.6606C88.9385 81.6527 89.2341 80.6701 89.77 79.8162C90.3059 78.9623 91.0623 78.2688 91.9593 77.8089C92.7372 77.4239 93.5371 77.085 94.3548 76.7939C96.3848 76.0631 99.3181 77.5348 101.186 76.2458C101.373 76.1235 101.589 76.051 101.812 76.0351C102.036 76.0192 102.259 76.0603 102.462 76.1548C102.666 76.2492 102.841 76.3937 102.973 76.5748C103.105 76.7559 103.188 76.9675 103.216 77.1897C103.439 79.3415 102.921 82.691 99.9779 83.7365C99.4431 83.9061 98.8844 83.9884 98.3234 83.9801Z" fill="#24285B"/>
<path d="M93.6844 88.1924C93.6844 88.1924 93.6844 86.0914 92.1416 86.1624C90.5988 86.2335 90.477 89.3089 92.6085 89.6743L93.6844 88.1924Z" fill="#F4A28C"/>
<path d="M99.6734 87.2075L101.105 89.3695C101.187 89.4933 101.236 89.6362 101.248 89.7846C101.26 89.9329 101.233 90.0818 101.171 90.2171C101.109 90.3523 101.014 90.4695 100.894 90.5574C100.774 90.6453 100.633 90.7011 100.485 90.7194L98.3945 91.0848L99.6734 87.2075Z" fill="#F4A28C"/>
<path opacity="0.31" d="M95.0552 93.0438C93.791 93.0598 92.5494 92.7071 91.4824 92.0288C91.4824 92.0288 91.6245 95.3377 95.918 97.591L95.0552 93.0438Z" fill="#CE8172"/>
<path d="M77.9928 247.395C77.9928 247.395 77.1706 250.531 74.4504 251.019C71.7302 251.506 71.243 254.246 73.7805 254.723C76.318 255.2 82.3979 251.455 82.3979 251.455L81.8599 247.507L77.9928 247.395Z" fill="#94FC7D"/>
<path d="M122.206 247.395C122.206 247.395 123.028 250.531 125.748 251.019C128.468 251.506 128.956 254.246 126.418 254.723C123.881 255.2 117.801 251.445 117.801 251.445L118.339 247.497L122.206 247.395Z" fill="#94FC7D"/>
<path d="M131.098 132.994C131.215 126.099 128.758 119.407 124.207 114.226C119.656 109.044 113.337 105.744 106.484 104.97C93.1166 103.397 68.9291 101.468 59.581 106.696C46.386 114.085 68.5333 182.658 68.5333 182.658H113.589C113.589 182.658 130.55 155.68 131.098 132.994Z" fill="#94FC7D"/>
<path opacity="0.08" d="M72.136 112.633C72.136 112.633 82.2859 115.435 79.5556 131.441H92.7506L92.9637 148.94C93.0513 155.869 95.0009 162.646 98.6081 168.562C102.215 174.479 107.348 179.316 113.467 182.567L113.589 182.628H68.5327L66.7666 176.903L72.136 112.633Z" fill="black"/>
<path d="M73.7804 120.063C73.9826 117.907 73.6062 115.736 72.6901 113.774C71.7741 111.811 70.3514 110.129 68.5687 108.899C66.786 107.67 64.7078 106.938 62.5481 106.779C60.3884 106.62 58.2254 107.04 56.2818 107.995C46.9641 112.633 37.1592 121.88 34.7232 140.302C30.379 173.076 39.4024 182.13 56.3224 172.508C67.4164 166.195 71.9636 138.435 73.7804 120.063Z" fill="#C5FDB9"/>
<path opacity="0.46" d="M73.7804 120.063C73.9826 117.907 73.6062 115.736 72.6901 113.774C71.7741 111.811 70.3514 110.129 68.5687 108.899C66.786 107.67 64.7078 106.938 62.5481 106.779C60.3884 106.62 58.2254 107.04 56.2818 107.995C46.9641 112.633 37.1592 121.88 34.7232 140.302C30.379 173.076 39.4024 182.13 56.3224 172.508C67.4164 166.195 71.9636 138.435 73.7804 120.063Z" fill="#94FC7D"/>
<path d="M84.1735 126.173H43.3096V176.923H84.1735V126.173Z" fill="#FFD200"/>
<path d="M56.3223 126.174C56.3223 126.174 59.1846 119.81 64.9092 122.205C70.6338 124.6 66.7362 132.162 56.3223 126.174Z" fill="#F4A28C"/>
<path opacity="0.58" d="M75.8509 134.76H50.0801V153.497H75.8509V134.76Z" fill="white"/>
<path d="M75.8509 159.577H50.0801V166.165H75.8509V159.577Z" fill="white"/>
<path d="M68.5332 182.658L75.8412 247.618H84.1744C84.1744 247.618 81.9921 198.533 94.5375 190.555C107.083 182.577 113.589 182.618 113.589 182.618L68.5332 182.658Z" fill="#24285B"/>
<path d="M113.588 182.658L124.753 247.618H116.948C116.948 247.618 107.316 199.335 84.1533 191.793C84.1736 191.763 97.9675 184.221 113.588 182.658Z" fill="#24285B"/>
<path d="M362.426 236.504H314.021V251.901H362.426V236.504Z" fill="#E6E6E6"/>
<path opacity="0.43" d="M351.84 221.441H303.435V236.839H351.84V221.441Z" fill="#E6E6E6"/>
<path opacity="0.58" d="M338.899 209.201C338.899 209.201 329.236 206.562 327.135 197.569C327.135 197.569 342.106 194.524 342.532 209.992L338.899 209.201Z" fill="#94FC7D"/>
<path opacity="0.73" d="M340.076 208.237C340.076 208.237 333.326 197.569 339.274 187.602C339.274 187.602 350.652 194.828 345.597 208.267L340.076 208.237Z" fill="#94FC7D"/>
<path d="M341.821 208.247C341.821 208.247 345.384 196.98 356.163 194.849C356.163 194.849 358.193 202.167 349.18 208.277L341.821 208.247Z" fill="#94FC7D"/>
<path d="M334.818 207.993L336.767 221.391L349.099 221.441L350.916 208.064L334.818 207.993Z" fill="#24285B"/>
<path d="M323.328 41.7051H182.365V252.338H323.328V41.7051Z" fill="#212527" fill-opacity="0.47"/>
<path d="M310.712 65.71H194.027V213.951H310.712V65.71Z" fill="#212527" fill-opacity="0.21"/>
<path opacity="0.12" d="M280.444 49.937H240.92V54.738H280.444V49.937Z" fill="black"/>
<path d="M228.274 58.067C231.155 58.067 233.491 55.7312 233.491 52.8499C233.491 49.9686 231.155 47.6328 228.274 47.6328C225.392 47.6328 223.057 49.9686 223.057 52.8499C223.057 55.7312 225.392 58.067 228.274 58.067Z" fill="#E6E6E6"/>
<path d="M231.288 131.147L222.508 140.282C221.809 141.012 220.951 141.571 220 141.914C219.049 142.257 218.031 142.376 217.027 142.261C216.023 142.146 215.059 141.801 214.21 141.251C213.361 140.702 212.651 139.964 212.135 139.095L200.767 119.739C200.454 119.204 200.222 118.626 200.077 118.023C199.579 115.993 198.219 110.918 196.707 110.319C194.799 109.609 194.322 114.298 194.322 114.298C194.322 114.298 188.831 110.634 186.456 114.298C185.035 116.47 188.486 119.373 191.531 121.403C194.082 123.059 195.98 125.548 196.9 128.447C199.813 137.653 206.928 157.192 215.292 158.806C226.264 160.917 245.63 144.393 245.63 144.393L231.288 131.147Z" fill="#F4A28C"/>
<path d="M252.593 100.799C252.593 100.799 217.646 106.452 221.94 130.599C225.046 148.088 234.12 146.839 233.693 160.176L233.49 168.651L270.66 167.525C270.66 167.525 268.295 150.798 272.943 138.902C277.592 127.006 290.351 97.6218 252.593 100.799Z" fill="#94FC7D"/>
<path d="M260.683 79.9302L262.307 101.002L250.624 101.062L254.136 85.7055L260.683 79.9302Z" fill="#F4A28C"/>
<path opacity="0.09" d="M263.058 105.295C263.058 105.295 244.899 110.735 250.624 126.376C256.349 142.018 265.463 151.934 256.288 156.928C247.112 161.922 233.45 168.651 233.45 168.651H264.915L272.386 160.531L278.851 137.004L263.058 105.295Z" fill="black"/>
<path opacity="0.31" d="M253.222 89.0549C254.699 88.8072 256.072 88.1334 257.171 87.1162C257.171 87.1162 256.694 90.9529 252.096 94.4141L253.222 89.0549Z" fill="#CE8172"/>
<path d="M248.959 78.1539C248.959 78.1539 248.249 84.5687 249.223 88.8723C249.319 89.288 249.495 89.6808 249.743 90.028C249.991 90.3752 250.305 90.67 250.667 90.8954C251.03 91.1208 251.433 91.2724 251.854 91.3416C252.275 91.4107 252.705 91.3959 253.121 91.2981C255.282 90.7703 258.043 89.4407 258.845 86.0506L260.875 80.4681C261.173 79.3062 261.103 78.0803 260.674 76.9602C260.245 75.84 259.478 74.8809 258.48 74.2157C254.937 71.5158 249.192 74.236 248.959 78.1539Z" fill="#F4A28C"/>
<path d="M233.491 168.651L226.416 213.951H276.151L270.67 167.524L233.491 168.651Z" fill="#24285B"/>
<path d="M255.679 83.8378C255.679 83.8378 255.79 81.3612 257.648 81.5946C259.505 81.8281 259.373 85.4212 256.836 85.6546L255.679 83.8378Z" fill="#F4A28C"/>
<path d="M248.675 82.2241L246.817 84.6601C246.707 84.7972 246.635 84.9605 246.607 85.1341C246.579 85.3076 246.596 85.4855 246.658 85.6502C246.719 85.815 246.822 85.9609 246.957 86.0738C247.092 86.1867 247.253 86.2627 247.426 86.2943L249.883 86.8221L248.675 82.2241Z" fill="#F4A28C"/>
<path d="M257.647 81.5948C257.647 81.5948 249.893 100.626 256.105 104.28C262.316 107.934 273.36 107.132 274.852 99.0223C276.344 90.9125 268.366 88.8723 268.295 77.5348C268.224 66.1972 246.421 66.9889 246.188 73.4748C245.955 79.9606 257.647 81.5948 257.647 81.5948Z" fill="#24285B"/>
<path d="M263.058 105.295C264.07 104.458 265.249 103.845 266.515 103.498C267.782 103.15 269.108 103.075 270.406 103.277C271.704 103.479 272.944 103.955 274.045 104.672C275.145 105.389 276.081 106.331 276.791 107.437C282.644 116.328 285.49 126.862 284.911 137.491C283.642 160.054 288.483 173.726 264.875 168.651C247.62 164.947 226.711 136.699 226.711 136.699C226.711 136.699 219.717 132.061 225.127 125.23C230.537 118.399 234.658 134.608 234.658 134.608C234.658 134.608 262.966 158.217 268.691 151.346C273.705 145.316 248.381 117.719 263.058 105.295Z" fill="#F4A28C"/>
<path d="M295.294 89.7755C300.176 89.7755 304.134 85.8174 304.134 80.9349C304.134 76.0523 300.176 72.0942 295.294 72.0942C290.411 72.0942 286.453 76.0523 286.453 80.9349C286.453 85.8174 290.411 89.7755 295.294 89.7755Z" fill="#94FC7D"/>
<path opacity="0.32" d="M283.845 89.7755C288.727 89.7755 292.685 85.8174 292.685 80.9349C292.685 76.0523 288.727 72.0942 283.845 72.0942C278.962 72.0942 275.004 76.0523 275.004 80.9349C275.004 85.8174 278.962 89.7755 283.845 89.7755Z" fill="#94FC7D"/>
<path d="M252.897 207.343C261.406 207.343 268.305 200.445 268.305 191.936C268.305 183.426 261.406 176.528 252.897 176.528C244.388 176.528 237.489 183.426 237.489 191.936C237.489 200.445 244.388 207.343 252.897 207.343Z" fill="#94FC7D"/>
<path d="M252.034 193.042C250.955 192.008 250.242 190.65 250.004 189.175C249.994 189.086 250.004 188.995 250.034 188.911C250.064 188.827 250.113 188.75 250.177 188.687L251.476 187.388C251.571 187.296 251.632 187.174 251.647 187.042C251.661 186.911 251.63 186.778 251.557 186.668L249.527 183.44C249.45 183.319 249.331 183.23 249.192 183.191C249.054 183.152 248.906 183.164 248.776 183.227L245.437 184.8C245.331 184.852 245.244 184.935 245.187 185.039C245.131 185.143 245.108 185.261 245.122 185.378C245.671 189.068 247.39 192.485 250.027 195.123C252.664 197.762 256.079 199.484 259.769 200.035C259.887 200.048 260.006 200.024 260.11 199.966C260.214 199.908 260.297 199.818 260.347 199.71L261.92 196.381C261.985 196.252 261.999 196.103 261.96 195.964C261.92 195.825 261.83 195.706 261.707 195.63L258.419 193.6C258.307 193.529 258.175 193.499 258.044 193.514C257.913 193.528 257.791 193.588 257.698 193.681L256.389 194.991C256.325 195.052 256.248 195.099 256.163 195.127C256.079 195.155 255.99 195.164 255.902 195.153C254.425 194.918 253.066 194.205 252.034 193.123V193.042Z" fill="white"/>
<path opacity="0.09" d="M324.161 109.781H288.687V164.165H324.161V109.781Z" fill="#CCCCCC"/>
<path d="M361.98 105.396H292.686V159.78H361.98V105.396Z" fill="#E6E6E6"/>
<path d="M361.98 99.6011H292.686V105.397H361.98V99.6011Z" fill="#B3B3B3"/>
<path d="M318.436 106.98L301.455 120.52C301.455 120.52 285.52 136.506 295.518 146.961C305.515 157.415 320.091 142.109 320.091 142.109L318.436 106.98Z" fill="#94FC7D"/>
<path opacity="0.08" d="M318.436 106.98L301.455 120.52C301.455 120.52 285.52 136.506 295.518 146.961C305.515 157.415 320.091 142.109 320.091 142.109L318.436 106.98Z" fill="black"/>
<path d="M299.827 111.913L298.287 113.123L306.12 123.091L307.66 121.881L299.827 111.913Z" fill="#24285B"/>
<path d="M301.455 120.52C301.455 120.52 304.094 117.404 306.469 118.429C308.844 119.454 308.225 124.184 304.084 124.265C299.943 124.347 301.455 120.52 301.455 120.52Z" fill="#F4A28C"/>
<path d="M326.434 86.0607C326.234 88.3044 326.34 90.5648 326.749 92.78C326.814 93.0397 326.93 93.284 327.09 93.4988C327.25 93.7135 327.451 93.8945 327.681 94.0313C327.911 94.1681 328.166 94.258 328.431 94.2959C328.696 94.3337 328.966 94.3187 329.225 94.2518C330.075 94.0862 330.859 93.6793 331.484 93.0799C332.108 92.4805 332.547 91.7139 332.747 90.8718L333.965 87.3396C334.134 86.6064 334.071 85.8391 333.785 85.1431C333.5 84.4471 333.006 83.8564 332.372 83.4522C330.088 81.8079 326.525 83.5943 326.434 86.0607Z" fill="#F4A28C"/>
<path d="M333.742 87.979L335.792 101.093L328.494 101.712L329.935 91.9172L333.742 87.979Z" fill="#F4A28C"/>
<path d="M326.332 88.6084L325.206 90.1715C325.142 90.2601 325.103 90.3632 325.09 90.4712C325.077 90.5793 325.091 90.6888 325.131 90.7899C325.172 90.8909 325.237 90.9802 325.321 91.0495C325.405 91.1188 325.505 91.1659 325.612 91.1865L327.154 91.4809L326.332 88.6084Z" fill="#F4A28C"/>
<path opacity="0.31" d="M329.53 94.0486C330.441 93.8229 331.267 93.3361 331.905 92.6479C331.625 94.5475 330.63 96.2685 329.124 97.459L329.53 94.0486Z" fill="#CE8172"/>
<path d="M312.691 159.648H340.685C349.576 145.651 369.653 108.391 336.889 101.093L327.754 101.864C327.754 101.864 309.727 107.162 310.448 124.113C311.077 137.775 312.255 153.913 312.691 159.648Z" fill="#94FC7D"/>
<path opacity="0.08" d="M312.702 159.648H340.381C344.217 151.742 356.052 124.123 340.716 111.943C338.147 113.37 336.035 115.496 334.625 118.074C333.215 120.651 332.564 123.576 332.748 126.509C333.347 136.811 331.652 140.505 321.025 139.318C310.398 138.13 311.514 142.738 311.514 142.738L312.702 159.648Z" fill="black"/>
<path d="M326.333 80.874C326.333 80.874 324.049 86.4768 328.495 86.964C332.94 87.4512 330.129 90.4556 332.747 90.9022C335.366 91.3488 338.35 84.9949 335.792 81.7672C333.235 78.5395 327.611 78.2959 326.333 80.874Z" fill="#24285B"/>
<path d="M337.792 115.272C337.633 113.904 337.899 112.52 338.555 111.309C339.211 110.097 340.224 109.118 341.457 108.503C342.69 107.888 344.082 107.668 345.444 107.874C346.806 108.079 348.072 108.699 349.069 109.649C355.309 115.591 359.206 123.577 360.051 132.152C362.7 154.269 354.915 176.02 320.689 140.881L324.171 136.821C324.171 136.821 341.182 148.564 346.207 146.555C350.053 145.052 339.335 129.147 337.792 115.272Z" fill="#94FC7D"/>
<path opacity="0.46" d="M337.792 115.272C337.633 113.904 337.899 112.52 338.555 111.309C339.211 110.097 340.224 109.118 341.457 108.503C342.69 107.888 344.082 107.668 345.444 107.874C346.806 108.079 348.072 108.699 349.069 109.649C355.309 115.591 359.206 123.577 360.051 132.152C362.7 154.269 354.915 176.02 320.689 140.881L324.171 136.821C324.171 136.821 341.182 148.564 346.207 146.555C350.053 145.052 339.335 129.147 337.792 115.272Z" fill="white"/>
<path d="M319.463 119.929L301.448 122.208L304.776 148.51L322.79 146.231L319.463 119.929Z" fill="#FFD200"/>
<path d="M321.593 139.805C321.593 139.805 314.549 136.405 316.264 133.847C317.98 131.289 324.171 136.821 324.171 136.821L321.593 139.805Z" fill="#F4A28C"/>
<path opacity="0.09" d="M227.066 179.024H182.548V225.826H227.066V179.024Z" fill="#CCCCCC"/>
<path d="M221.777 173.442H162.136V220.244H221.777V173.442Z" fill="#E6E6E6"/>
<path d="M221.777 167.474H162.136V173.452H221.777V167.474Z" fill="#B3B3B3"/>
<path d="M173.565 220.254L171.637 197.244C171.637 197.244 181.076 195.985 181.919 196.229C182.436 196.361 182.558 209.911 182.568 220.274L173.565 220.254Z" fill="#F4A28C"/>
<path d="M190.049 163.201C190.049 163.201 193.662 160.409 196.301 162.592C198.94 164.774 196.717 173.016 202.767 171.371C202.767 171.371 196.047 176.446 191.906 167.474L190.049 163.201Z" fill="#24285B"/>
<path d="M192.566 169.037C192.566 169.037 194.951 168.803 194.119 165.535C193.287 162.267 190.597 162.267 189.795 163.079L192.566 169.037Z" fill="#68E1FD"/>
<path d="M185.572 166.966C185.665 168.536 185.969 170.086 186.476 171.574C186.547 171.747 186.651 171.904 186.783 172.036C186.916 172.168 187.073 172.272 187.245 172.343C187.418 172.414 187.603 172.45 187.79 172.448C187.977 172.447 188.161 172.409 188.333 172.336C188.902 172.134 189.402 171.774 189.773 171.297C190.143 170.82 190.369 170.247 190.424 169.646L190.901 167.088C190.942 166.563 190.82 166.039 190.551 165.586C190.282 165.133 189.88 164.775 189.399 164.561C188.991 164.376 188.544 164.296 188.097 164.326C187.65 164.357 187.218 164.497 186.839 164.736C186.46 164.974 186.146 165.302 185.925 165.692C185.704 166.081 185.583 166.519 185.572 166.966Z" fill="#F4A28C"/>
<path d="M191.418 168.55L192.839 177.695L187.744 178.121L188.729 171.463L191.418 168.55Z" fill="#F4A28C"/>
<path d="M185.745 168.743L185.126 169.93C185.089 169.997 185.071 170.072 185.071 170.148C185.072 170.224 185.092 170.299 185.13 170.365C185.167 170.431 185.221 170.486 185.286 170.526C185.351 170.565 185.425 170.587 185.501 170.59H186.608L185.745 168.743Z" fill="#F4A28C"/>
<path opacity="0.31" d="M188.698 171.655C189.305 171.495 189.856 171.172 190.292 170.722C190.404 171.346 190.272 171.99 189.922 172.519C189.573 173.048 189.032 173.422 188.414 173.564L188.698 171.655Z" fill="#CE8172"/>
<path d="M191.226 168.591C191.226 168.591 191.084 167.505 191.906 167.474C192.728 167.444 192.921 168.997 191.906 169.301L191.226 168.591Z" fill="#F4A28C"/>
<path d="M186.141 166.753C187.046 166.842 187.959 166.777 188.841 166.56C188.841 166.56 189.633 169.605 192.17 170.265C192.17 170.265 194.2 165.434 191.155 163.82C188.628 162.47 186.74 161.252 184.873 163.19C184.6 163.473 184.411 163.827 184.328 164.211C184.245 164.595 184.271 164.995 184.403 165.365C184.534 165.735 184.767 166.061 185.074 166.307C185.381 166.552 185.751 166.707 186.141 166.753Z" fill="#24285B"/>
<path d="M188.912 168.225C188.912 168.225 188.912 166.967 189.927 167.088C190.942 167.21 191.033 168.682 189.815 169.342L188.912 168.225Z" fill="#F4A28C"/>
<path d="M177.219 220.254L176.783 214.854C176.608 212.826 175.846 210.893 174.59 209.292C159.731 190.007 187.785 178.121 187.785 178.121L192.86 177.695C220.387 183.876 210.115 208.145 202.919 220.254H177.219Z" fill="#94FC7D"/>
<path opacity="0.08" d="M177.219 220.254L176.925 216.123C176.925 216.123 178.721 208.805 187.461 214.875C196.2 220.944 201.102 213.941 193.551 205.323C191.426 203.045 190.135 200.115 189.888 197.009C189.641 193.904 190.453 190.806 192.19 188.221L212.805 209.312L207.598 220.254H177.219Z" fill="black"/>
<path d="M215.555 220.254H187.592C185.07 218.47 182.647 216.549 180.335 214.499C177.747 213.798 176.539 209.424 178.711 208.815C180.883 208.206 182.152 211.687 182.152 211.687C182.152 211.687 199.458 223.624 204.553 216.864C206.126 214.773 204.259 211.433 202.858 208.744C200.32 203.963 192.261 195.64 192.21 188.19C192.21 182.1 199.387 178.801 204.157 182.597C210.612 187.672 219.687 196.351 216.144 217.544C215.999 218.457 215.803 219.362 215.555 220.254Z" fill="#F4A28C"/>
<path d="M194.809 178.182C194.809 178.182 195.611 176.03 191.592 175.391C187.572 174.751 184.264 176.325 185.502 179.238C185.461 179.238 188.395 181.806 194.809 178.182Z" fill="#68E1FD"/>
<path opacity="0.46" d="M194.809 178.182C194.809 178.182 195.611 176.03 191.592 175.391C187.572 174.751 184.264 176.325 185.502 179.238C185.461 179.238 188.395 181.806 194.809 178.182Z" fill="white"/>
<path opacity="0.09" d="M252.846 243.507C258.508 243.507 263.098 238.918 263.098 233.256C263.098 227.594 258.508 223.004 252.846 223.004C247.184 223.004 242.595 227.594 242.595 233.256C242.595 238.918 247.184 243.507 252.846 243.507Z" fill="black"/>
</svg>
