<svg width="406" height="306" viewBox="0 0 406 306" fill="none" xmlns="http://www.w3.org/2000/svg">
<path d="M354.418 49.3687H50.5469V270.172H354.418V49.3687Z" fill="#212527" fill-opacity="0.32"/>
<path d="M354.641 49.2466H50.6582V92.3435H354.641V49.2466Z" fill="#212527" fill-opacity="0.4"/>
<path d="M77.9216 76.8042C80.9655 76.8042 83.4331 74.3366 83.4331 71.2927C83.4331 68.2488 80.9655 65.7812 77.9216 65.7812C74.8777 65.7812 72.4102 68.2488 72.4102 71.2927C72.4102 74.3366 74.8777 76.8042 77.9216 76.8042Z" fill="#24285B"/>
<path d="M94.3034 76.7631C97.3473 76.7631 99.8149 74.2956 99.8149 71.2517C99.8149 68.2078 97.3473 65.7402 94.3034 65.7402C91.2596 65.7402 88.792 68.2078 88.792 71.2517C88.792 74.2956 91.2596 76.7631 94.3034 76.7631Z" fill="#68E1FD"/>
<path d="M109.752 76.7226C112.796 76.7226 115.263 74.255 115.263 71.2112C115.263 68.1673 112.796 65.6997 109.752 65.6997C106.708 65.6997 104.24 68.1673 104.24 71.2112C104.24 74.255 106.708 76.7226 109.752 76.7226Z" fill="#FFD200"/>
<path d="M198.239 121.109C198.239 121.109 201.772 127.554 202.614 132.507C202.695 132.986 202.681 133.477 202.572 133.951C202.462 134.425 202.26 134.872 201.977 135.268C201.694 135.663 201.336 135.998 200.922 136.254C200.509 136.511 200.049 136.682 199.569 136.76C197.072 137.156 193.581 136.953 191.256 133.715L186.658 128.721C185.84 127.627 185.381 126.306 185.347 124.941C185.312 123.575 185.703 122.232 186.465 121.098C189.044 116.703 196.27 117.069 198.239 121.109Z" fill="#F4A28C"/>
<path d="M189.308 127.584L187.653 151.62L200.97 151.589L196.829 134.111L189.308 127.584Z" fill="#F4A28C"/>
<path d="M196.686 122.124C194.645 123.12 192.496 123.88 190.282 124.387C191.287 125.033 192.08 125.961 192.562 127.055C193.044 128.148 193.193 129.36 192.992 130.538C192.821 131.684 192.259 132.735 191.4 133.513C190.541 134.29 189.439 134.745 188.282 134.801L184.577 126.102C184.006 124.877 183.776 123.52 183.912 122.175C184.048 120.83 184.544 119.546 185.349 118.459C186.049 117.522 186.805 116.627 187.612 115.78C189.642 113.679 194.037 113.75 195.529 111.07C195.681 110.804 195.899 110.581 196.162 110.424C196.425 110.266 196.725 110.18 197.032 110.173C197.338 110.166 197.641 110.238 197.912 110.383C198.182 110.528 198.41 110.74 198.574 110.999C200.127 113.455 201.477 117.8 198.574 120.804C198.028 121.352 197.388 121.799 196.686 122.124Z" fill="#24285B"/>
<path d="M193.621 130.02C193.621 130.02 192.434 127.452 190.576 128.508C188.719 129.564 190.414 133.289 193.215 132.477L193.621 130.02Z" fill="#F4A28C"/>
<path d="M200.26 125.28L203.305 127.046C203.485 127.144 203.637 127.287 203.746 127.462C203.854 127.636 203.915 127.836 203.922 128.041C203.929 128.246 203.882 128.45 203.787 128.631C203.691 128.813 203.549 128.966 203.376 129.076L200.97 130.67L200.26 125.28Z" fill="#F4A28C"/>
<path opacity="0.31" d="M197.925 137.897C196.239 137.631 194.668 136.876 193.408 135.725C193.408 135.725 193.987 140.099 199.204 143.997L197.925 137.897Z" fill="#CE8172"/>
<path d="M202.766 62.8071H197.854V78.0017H202.766V62.8071Z" fill="#FFD200"/>
<path d="M184.616 35.8755L218.179 37.1296L217.307 60.4584C217.245 62.1235 216.524 63.6958 215.303 64.8292C214.081 65.9626 212.459 66.5644 210.794 66.5022L189.798 65.7177C188.133 65.6554 186.561 64.9343 185.428 63.7128C184.294 62.4914 183.692 60.8697 183.755 59.2046L184.626 35.8759L184.616 35.8755Z" fill="#FFD200"/>
<path d="M209.608 74.1343H191.906V87.5018H209.608V74.1343Z" fill="#24285B"/>
<path opacity="0.13" d="M205.507 77.2305H196.017V84.3964H205.507V77.2305Z" fill="white"/>
<path d="M198.493 58.7266H182.324C179.864 58.7266 177.504 57.7492 175.764 56.0094C174.024 54.2696 173.047 51.9099 173.047 49.4495C173.047 46.989 174.024 44.6294 175.764 42.8896C177.504 41.1498 179.864 40.1724 182.324 40.1724H198.493V58.7266ZM182.324 42.3648C180.453 42.3648 178.659 43.108 177.336 44.4309C176.013 45.7538 175.27 47.5481 175.27 49.419C175.27 51.2899 176.013 53.0842 177.336 54.4071C178.659 55.73 180.453 56.4733 182.324 56.4733H196.27V42.3648H182.324Z" fill="#FFD200"/>
<path d="M221.381 58.7266H205.223V40.1724H221.381C223.842 40.1724 226.202 41.1498 227.941 42.8896C229.681 44.6294 230.659 46.989 230.659 49.4495C230.659 51.9099 229.681 54.2696 227.941 56.0094C226.202 57.7492 223.842 58.7266 221.381 58.7266ZM207.435 56.5037H221.381C222.379 56.6236 223.39 56.5306 224.349 56.2308C225.308 55.931 226.192 55.4314 226.944 54.7647C227.695 54.0981 228.297 53.2797 228.709 52.3634C229.121 51.4472 229.334 50.4541 229.334 49.4495C229.334 48.4449 229.121 47.4517 228.709 46.5355C228.297 45.6193 227.695 44.8008 226.944 44.1342C226.192 43.4676 225.308 42.9679 224.349 42.6681C223.39 42.3684 222.379 42.2754 221.381 42.3952H207.435V56.5037Z" fill="#FFD200"/>
<path opacity="0.43" d="M188.15 41.9896C187.491 46.8718 187.044 57.3364 194.372 61.4878C194.565 61.6555 194.815 61.7443 195.07 61.7363C195.326 61.7282 195.569 61.6241 195.751 61.4445C195.933 61.265 196.041 61.0234 196.052 60.768C196.064 60.5125 195.979 60.2621 195.814 60.0668C193.946 56.9 191.754 50.9318 193.378 42.0911C193.439 41.7623 193.427 41.424 193.342 41.1003C193.258 40.7767 193.103 40.4757 192.889 40.2188C192.674 39.9619 192.406 39.7554 192.103 39.6142C191.8 39.4729 191.469 39.4002 191.135 39.4014C190.411 39.4077 189.713 39.6716 189.166 40.146C188.619 40.6203 188.259 41.2739 188.15 41.9896Z" fill="white"/>
<path d="M184.872 81.9502L188.648 90.7096C185.867 91.0344 148.647 112.806 149.976 132C151.306 151.193 192.241 159.405 176.955 186.678C161.669 213.951 131.026 165.809 128.702 150.524C126.378 135.238 120.41 102.413 184.872 81.9502Z" fill="#68E1FD"/>
<path d="M188.648 90.6788C191.439 90.3439 196.159 85.0253 191.764 78.3466C187.369 71.6679 184.872 81.9499 184.872 81.9499C184.872 81.9499 187.907 90.7702 188.648 90.6788Z" fill="#F4A28C"/>
<path d="M215.353 83.584L211.577 92.3333C214.358 92.6682 251.578 114.43 250.249 133.623C248.919 152.817 209.019 157.841 224.305 185.084C239.591 212.327 269.189 167.433 271.523 152.147C273.858 136.861 279.816 104.067 215.353 83.584Z" fill="#68E1FD"/>
<path opacity="0.46" d="M184.872 81.9502L188.648 90.7096C185.867 91.0344 148.647 112.806 149.976 132C151.306 151.193 192.241 159.405 176.955 186.678C161.669 213.951 131.026 165.809 128.702 150.524C126.378 135.238 120.41 102.413 184.872 81.9502Z" fill="#94FC7D"/>
<path opacity="0.46" d="M215.353 83.584L211.577 92.3333C214.358 92.6682 251.578 114.43 250.249 133.623C248.919 152.817 209.019 157.841 224.305 185.084C239.591 212.327 269.189 167.433 271.523 152.147C273.858 136.861 279.816 104.067 215.353 83.584Z" fill="#94FC7D"/>
<path d="M215.352 83.584C215.352 83.584 212.855 73.3223 208.46 80.001C204.066 86.6797 208.785 91.9983 211.577 92.3333L215.352 83.584Z" fill="#F4A28C"/>
<path d="M187.654 151.62H200.97C200.97 151.62 247.731 152.838 244.209 190.058C240.687 227.278 220.753 258.519 220.753 258.519L172.753 255.779C172.753 255.779 120.653 153.091 187.654 151.62Z" fill="#94FC7D"/>
<path d="M188.059 145.804C188.059 145.804 177.219 150.483 181.543 164.439C185.867 178.395 195.956 191.408 195.956 191.408L200.26 189.905C200.26 189.905 180.031 162.237 187.653 151.62L188.059 145.804Z" fill="#24285B"/>
<path d="M199.529 145.509C199.529 145.509 208.664 147.042 206.634 164.439C205.564 173.353 203.441 182.11 200.311 190.525L195.845 190.301C195.845 190.301 202.696 168.164 200.524 151.62L199.529 145.509Z" fill="#24285B"/>
<path opacity="0.09" d="M190.485 202.349L187.491 225.451L191.419 220.518C191.419 220.518 195.763 228.455 195.642 227.917C195.52 227.379 198.068 204.288 198.068 204.288L190.485 202.349Z" fill="black"/>
<path opacity="0.09" d="M204.664 202.349L207.709 225.451L203.791 220.518C203.791 220.518 199.437 228.455 199.569 227.917C199.701 227.379 197.133 204.288 197.133 204.288L204.664 202.349Z" fill="black"/>
<path d="M197.407 208.653C204.145 208.653 209.608 203.19 209.608 196.452C209.608 189.714 204.145 184.252 197.407 184.252C190.669 184.252 185.207 189.714 185.207 196.452C185.207 203.19 190.669 208.653 197.407 208.653Z" fill="#FFD200"/>
<path d="M223.381 270.111L220.752 258.489L172.753 255.749L171.443 270.111H223.381Z" fill="#24285B"/>
<path opacity="0.08" d="M133.25 218.924H51.2275V249.527H133.25V218.924Z" fill="#666666"/>
<path d="M121.851 213.474H43.1172V244.076H121.851V213.474Z" fill="#E6E6E6"/>
<path d="M128.286 213.413H36.6924V244.015H128.286V213.413Z" fill="#CCCCCC"/>
<path d="M53.277 221.137L55.3273 225.278L59.8948 225.938L56.5859 229.165L57.3674 233.723L53.277 231.571L49.1865 233.723L49.9681 229.165L46.6592 225.938L51.2368 225.278L53.277 221.137Z" fill="white"/>
<path d="M67.8834 221.137L69.9236 225.278L74.5012 225.938L71.1923 229.165L71.9739 233.723L67.8834 231.571L63.793 233.723L64.5745 229.165L61.2656 225.938L65.8331 225.278L67.8834 221.137Z" fill="white"/>
<path d="M82.4889 221.137L84.529 225.278L89.1067 225.938L85.7978 229.165L86.5793 233.723L82.4889 231.571L78.3984 233.723L79.18 229.165L75.8711 225.938L80.4386 225.278L82.4889 221.137Z" fill="white"/>
<path d="M97.0846 221.137L99.1349 225.278L103.702 225.938L100.404 229.165L101.175 233.723L97.0846 231.571L93.0043 233.723L93.7757 229.165L90.4668 225.938L95.0444 225.278L97.0846 221.137Z" fill="white"/>
<path d="M111.691 221.137L113.741 225.278L118.309 225.938L115 229.165L115.781 233.723L111.691 231.571L107.601 233.723L108.382 229.165L105.073 225.938L109.651 225.278L111.691 221.137Z" fill="white"/>
<path d="M308.073 198.979H261.688V204.633H308.073V198.979Z" fill="#CCCCCC"/>
<path d="M338.787 198.979H315.462V204.633H338.787V198.979Z" fill="#CCCCCC"/>
<path opacity="0.8" d="M274.253 214.001H247.305V219.655H274.253V214.001Z" fill="#CCCCCC"/>
<path opacity="0.8" d="M338.787 214.001H282.292V219.655H338.787V214.001Z" fill="#CCCCCC"/>
<path opacity="0.5" d="M338.787 229.013H247.305V234.667H338.787V229.013Z" fill="#CCCCCC"/>
<path opacity="0.2" d="M310.925 244.035H247.305V249.689H310.925V244.035Z" fill="#CCCCCC"/>
<path d="M79.5051 156.502H66.168V190.525H79.5051V156.502Z" fill="#E6E6E6"/>
<path d="M98.9113 140.932H85.5742V190.525H98.9113V140.932Z" fill="#E6E6E6"/>
<path d="M118.319 122.489H104.981V190.535H118.319V122.489Z" fill="#CCCCCC"/>
<path d="M337.376 111.111V187.368H316.304V137.399C313.204 139.793 309.891 141.9 306.408 143.692C302.547 145.556 298.538 147.094 294.421 148.29V131.208C301.506 128.927 307.01 126.184 310.935 122.976C314.862 119.769 318.01 115.712 320.141 111.111H337.376Z" fill="#E6E6E6"/>
<path d="M298.268 179.157L298.898 176.01H295.853V172.579H299.567L300.461 168.134H303.993L303.089 172.579H305.82L306.713 168.134H310.225L309.342 172.579H311.057V176.01H308.652L308.022 179.157H311.067V182.587H307.352L306.48 186.952H302.947L303.82 182.587H301.08L300.197 186.952H296.695L297.568 182.587H295.873V179.157H298.268ZM301.79 179.157H304.5L305.13 176.01H302.47L301.79 179.157Z" fill="#E6E6E6"/>
<path d="M111.65 104.879L113.832 109.314L118.725 110.025L115.182 113.476L116.025 118.348L111.65 116.044L107.265 118.348L108.108 113.476L104.565 110.025L109.458 109.314L111.65 104.879Z" fill="#FFD200"/>
<path opacity="0.5" d="M85.5746 103.783H69.4463V107.193H85.5746V103.783Z" fill="#CCCCCC"/>
<path opacity="0.2" d="M85.5746 114.247H69.4463V117.657H85.5746V114.247Z" fill="#CCCCCC"/>
<path opacity="0.5" d="M92.9845 103.783H88.8027V107.193H92.9845V103.783Z" fill="#CCCCCC"/>
<path opacity="0.2" d="M92.9845 114.247H88.8027V117.657H92.9845V114.247Z" fill="#CCCCCC"/>
</svg>
