<svg width="406" height="306" viewBox="0 0 406 306" fill="none" xmlns="http://www.w3.org/2000/svg">
<path opacity="0.3" d="M111.132 62.7153C75.4751 71.2413 47.1058 91.9777 42.112 130.791C37.8693 163.484 42.2338 221.4 101.896 231.692C217.991 251.729 304.713 251.85 348.338 202.024C375.245 171.27 374.788 77.8895 309.757 63.913C263.758 53.9964 187.572 44.4453 111.132 62.7153Z" fill="#E6E6E6"/>
<path d="M302.297 60.3712V248.633H151.387C147.78 248.633 144.32 247.2 141.769 244.65C139.219 242.099 137.786 238.64 137.786 235.032V61.6501C137.786 58.1505 136.396 54.7943 133.921 52.3198C131.447 49.8453 128.09 48.4551 124.591 48.4551H290.401C291.965 48.4564 293.513 48.7657 294.957 49.3652C296.401 49.9648 297.712 50.8429 298.817 51.9494C299.922 53.0559 300.798 54.3692 301.395 55.8142C301.992 57.2592 302.298 58.8077 302.297 60.3712Z" fill="#94FC7D"/>
<path d="M137.786 61.6501V206.064H111.396V61.6501C111.396 58.1505 112.787 54.7943 115.261 52.3198C117.736 49.8453 121.092 48.4551 124.591 48.4551C128.091 48.4551 131.447 49.8453 133.922 52.3198C136.396 54.7943 137.786 58.1505 137.786 61.6501Z" fill="#212527" fill-opacity="0.49"/>
<path d="M164.999 230.465V237.367C164.999 241.519 158.787 248.035 152.626 248.532V248.583H310.966C313.353 248.583 315.716 248.113 317.921 247.199C320.126 246.285 322.129 244.946 323.817 243.258C325.504 241.57 326.842 239.566 327.754 237.36C328.667 235.155 329.136 232.791 329.134 230.404H164.999V230.465Z" fill="#94FC7D"/>
<path opacity="0.5" d="M164.999 230.465V237.367C164.999 241.519 158.787 248.035 152.626 248.532V248.583H310.966C313.353 248.583 315.716 248.113 317.921 247.199C320.126 246.285 322.129 244.946 323.817 243.258C325.504 241.57 326.842 239.566 327.754 237.36C328.667 235.155 329.136 232.791 329.134 230.404H164.999V230.465Z" fill="white"/>
<g opacity="0.12">
<path d="M180.03 180.192H160.096V215.169H180.03V180.192Z" fill="black"/>
<path d="M212.53 167.403H192.596V215.169H212.53V167.403Z" fill="black"/>
<path d="M245.031 146.91H225.097V215.169H245.031V146.91Z" fill="black"/>
<path d="M277.531 128.265H257.597V215.169H277.531V128.265Z" fill="black"/>
</g>
<path opacity="0.46" d="M211.333 135.105H179.432V140.475H211.333V135.105Z" fill="white"/>
<path opacity="0.46" d="M211.333 149.265H179.432V154.634H211.333V149.265Z" fill="white"/>
<path opacity="0.1" d="M169.505 135.105H160.096V140.475H169.505V135.105Z" fill="black"/>
<path d="M169.505 149.265H160.096V154.634H169.505V149.265Z" fill="#FFD200"/>
<path opacity="0.46" d="M201.244 94.181C201.243 100.038 198.993 105.671 194.958 109.917C190.923 114.162 185.412 116.696 179.562 116.995C173.713 117.294 167.972 115.335 163.525 111.522C159.079 107.71 156.266 102.336 155.668 96.5092C155.07 90.6828 156.733 84.8492 160.312 80.2133C163.892 75.5774 169.115 72.4932 174.904 71.5978C180.692 70.7023 186.603 72.064 191.416 75.4015C196.229 78.7391 199.577 83.7976 200.767 89.5323C200.879 90.1413 200.99 90.7706 201.072 91.3796C201.191 92.3086 201.249 93.2444 201.244 94.181Z" fill="white"/>
<path d="M178.396 71.333V94.1806L200.726 89.5319C200.726 89.5319 197.651 71.1807 178.396 71.333Z" fill="#FFD200"/>
<path opacity="0.1" d="M201.244 94.1809C201.241 98.3153 200.116 102.371 197.989 105.917C195.862 109.462 192.813 112.364 189.167 114.313C185.521 116.262 181.415 117.185 177.285 116.984C173.156 116.783 169.158 115.466 165.719 113.172L178.416 94.1809L200.746 89.5322C200.858 90.1412 200.97 90.7705 201.051 91.3795C201.177 92.308 201.241 93.2439 201.244 94.1809Z" fill="black"/>
<path opacity="0.46" d="M210.998 77.3115L289.6 77.3115V71.9422L210.998 71.9422V77.3115Z" fill="white"/>
<path opacity="0.46" d="M210.998 89.0352L289.6 89.0352V83.6658L210.998 83.6658V89.0352Z" fill="white"/>
<path opacity="0.46" d="M210.998 100.758L289.6 100.758V95.3885L210.998 95.3885V100.758Z" fill="white"/>
<path opacity="0.46" d="M210.998 112.481H256.135V107.112H210.998V112.481Z" fill="white"/>
<path opacity="0.1" d="M302.074 128.265H248.025V194.473H302.074V128.265Z" fill="black"/>
<path d="M327.236 129.827H253.436V187.033H327.236V129.827Z" fill="#212527" fill-opacity="0.5"/>
<path d="M327.236 122.235H253.436V129.817H327.236V122.235Z" fill="#FFD200"/>
<path opacity="0.46" d="M312.316 157.517C312.328 153.054 310.967 148.695 308.418 145.032L307.779 144.19C305.733 141.492 303.088 139.307 300.053 137.806C297.018 136.305 293.676 135.53 290.29 135.542C288.804 135.538 287.322 135.685 285.865 135.979C285.046 136.149 284.236 136.362 283.439 136.618L282.84 136.821C278.863 138.249 275.386 140.802 272.832 144.17L272.183 145.012C269.651 148.685 268.295 153.041 268.295 157.502C268.295 161.963 269.651 166.318 272.183 169.991L272.832 170.834C274.874 173.528 277.514 175.71 280.544 177.209C283.573 178.708 286.91 179.483 290.29 179.471C291.569 179.472 292.846 179.363 294.107 179.147C294.523 179.075 294.939 178.984 295.345 178.893C295.954 178.751 296.563 178.578 297.152 178.385C297.497 178.274 297.832 178.152 298.167 178.02L298.563 177.868C299.412 177.523 300.239 177.127 301.039 176.68L301.202 176.589C302.82 175.666 304.311 174.537 305.637 173.229C305.874 172.999 306.107 172.755 306.338 172.498C306.825 171.981 307.292 171.422 307.738 170.844L308.378 170.001C310.938 166.341 312.312 161.983 312.316 157.517ZM305.515 170.499C305.292 170.742 305.079 170.996 304.845 171.23L304.764 171.321C304.541 171.554 304.318 171.778 304.084 172.001L303.983 172.092C303.759 172.305 303.526 172.519 303.282 172.722L303.171 172.813L302.44 173.402L302.328 173.493L301.557 174.041L301.455 174.102C301.191 174.285 300.917 174.457 300.643 174.62H300.572C300.288 174.782 299.994 174.955 299.699 175.107C299.405 175.269 299.101 175.421 298.796 175.564C298.492 175.706 298.187 175.827 297.883 175.959H297.801C297.497 176.081 297.203 176.183 296.898 176.284H296.776C298.809 173.967 300.297 171.224 301.131 168.256C302.704 168.761 304.216 169.442 305.637 170.286L305.515 170.499ZM283.886 176.345C283.581 176.244 283.277 176.142 282.982 176.02H282.901C282.587 175.888 282.282 175.767 281.988 175.624C281.683 175.482 281.379 175.33 281.074 175.168C280.78 175.015 280.496 174.843 280.211 174.681H280.13C279.856 174.518 279.592 174.346 279.318 174.163L279.217 174.102C278.963 173.919 278.699 173.737 278.455 173.544L278.344 173.463L277.603 172.874L277.501 172.782C277.258 172.579 277.024 172.366 276.791 172.153L276.699 172.062C276.466 171.839 276.233 171.615 276.009 171.382L275.938 171.301C275.705 171.057 275.482 170.803 275.258 170.549C276.684 169.707 278.199 169.027 279.775 168.519C280.605 171.487 282.089 174.23 284.119 176.548L283.886 176.345ZM275.207 144.505C275.421 144.251 275.644 144.007 275.867 143.764C275.892 143.734 275.919 143.707 275.948 143.682C276.172 143.449 276.395 143.216 276.628 143.002L276.73 142.901C276.963 142.688 277.197 142.475 277.44 142.272L277.552 142.18C277.786 141.977 278.029 141.784 278.283 141.592L278.395 141.51C278.652 141.321 278.905 141.138 279.156 140.962L279.267 140.891C279.531 140.708 279.795 140.536 280.069 140.374H280.151L281.013 139.876C281.318 139.714 281.622 139.572 281.927 139.43C282.221 139.298 282.526 139.166 282.84 139.044H282.921L283.825 138.719H283.947C281.917 141.037 280.432 143.78 279.602 146.748C278.026 146.242 276.51 145.561 275.086 144.718L275.207 144.505ZM296.786 138.607L297.69 138.932H297.771L298.684 139.318C298.989 139.46 299.293 139.602 299.588 139.765C299.882 139.927 300.176 140.089 300.461 140.262H300.532C300.806 140.424 301.08 140.597 301.344 140.78L301.445 140.851C301.709 141.023 301.963 141.206 302.217 141.399L302.328 141.48L303.059 142.069L303.171 142.16C303.414 142.363 303.648 142.576 303.871 142.789C303.907 142.82 303.941 142.854 303.973 142.891C304.206 143.104 304.429 143.337 304.653 143.571C304.685 143.592 304.712 143.62 304.734 143.652C304.967 143.896 305.191 144.139 305.404 144.393C303.983 145.237 302.471 145.918 300.897 146.423C300.064 143.455 298.576 140.711 296.543 138.394L296.786 138.607ZM302.47 156.492C302.418 153.827 302.077 151.176 301.455 148.585C303.288 148 305.043 147.196 306.683 146.189C308.796 149.226 310.01 152.797 310.184 156.492H302.47ZM291.305 137.694C294.482 138.354 297.274 142.038 298.908 147.204C296.419 147.823 293.869 148.163 291.305 148.219V137.694ZM289.275 137.694V148.23C286.712 148.173 284.162 147.832 281.673 147.215C283.338 142.038 286.139 138.354 289.275 137.694ZM281.155 149.174C283.813 149.84 286.536 150.211 289.275 150.28V156.492H280.14C280.222 154.024 280.562 151.571 281.155 149.174ZM289.275 158.542V164.764C286.536 164.825 283.813 165.192 281.155 165.86C280.582 163.461 280.262 161.008 280.201 158.542H289.275ZM289.275 166.814V177.36C286.109 176.7 283.307 173.026 281.673 167.86C284.16 167.227 286.71 166.876 289.275 166.814ZM291.305 166.814C293.87 166.865 296.42 167.206 298.908 167.829C297.274 172.996 294.482 176.67 291.305 177.33V166.814ZM299.425 165.86C296.768 165.191 294.045 164.824 291.305 164.764V158.542H300.44C300.386 161.007 300.073 163.46 299.507 165.86H299.425ZM291.305 156.492V150.28C294.045 150.217 296.769 149.846 299.425 149.174C299.998 151.573 300.318 154.026 300.379 156.492H291.305ZM279.125 148.585C278.513 151.178 278.173 153.828 278.11 156.492H270.386C270.569 152.797 271.786 149.227 273.898 146.189C275.537 147.196 277.292 148.001 279.125 148.585ZM278.11 158.542C278.173 161.206 278.513 163.856 279.125 166.449C277.298 167.038 275.546 167.842 273.908 168.844C271.794 165.808 270.577 162.238 270.396 158.542H278.11ZM301.455 166.449C302.077 163.858 302.418 161.207 302.47 158.542H310.194C310.021 162.237 308.807 165.809 306.693 168.844C305.064 167.845 303.323 167.041 301.506 166.449H301.455Z" fill="white"/>
<path d="M132 165.87C135.482 174.425 135.656 183.97 132.488 192.646C127.2 207.384 138.72 214.834 116.4 216.803C94.0801 218.772 132 165.87 132 165.87Z" fill="#94FC7D"/>
<path opacity="0.46" d="M132 165.87C135.482 174.425 135.656 183.97 132.488 192.646C127.2 207.384 138.72 214.834 116.4 216.803C94.0801 218.772 132 165.87 132 165.87Z" fill="white"/>
<path d="M116.878 134.619C117.857 136.459 118.587 138.422 119.05 140.455C119.089 140.7 119.079 140.95 119.021 141.191C118.962 141.431 118.857 141.658 118.711 141.858C118.565 142.058 118.38 142.228 118.168 142.356C117.957 142.484 117.721 142.57 117.476 142.607C116.694 142.775 115.879 142.715 115.13 142.432C114.381 142.149 113.73 141.657 113.254 141.013L110.93 138.445C110.518 137.884 110.291 137.208 110.28 136.511C110.269 135.815 110.475 135.132 110.869 134.558C112.209 132.325 115.893 132.548 116.878 134.619Z" fill="#F4A28C"/>
<path d="M112.654 138.922L109.711 150.858L116.4 152.015L115.872 143.094L112.654 138.922Z" fill="#F4A28C"/>
<path d="M117.882 136.76L119.414 137.673C119.5 137.727 119.571 137.802 119.621 137.891C119.67 137.979 119.695 138.079 119.695 138.181C119.695 138.282 119.67 138.382 119.621 138.471C119.571 138.56 119.5 138.634 119.414 138.688L118.196 139.5L117.882 136.76Z" fill="#F4A28C"/>
<path opacity="0.31" d="M115.903 142.626C114.753 142.397 113.655 141.957 112.665 141.327C112.665 141.327 112.898 146.91 116.167 147.64L115.903 142.626Z" fill="#CE8172"/>
<path d="M113.985 138.79C113.985 138.79 113.386 137.471 112.442 137.999C111.498 138.526 112.33 140.435 113.761 140.029L113.985 138.79Z" fill="#F4A28C"/>
<path d="M109.082 138.15C109.278 138.409 109.539 138.613 109.838 138.741C110.137 138.869 110.464 138.917 110.787 138.881C111.863 138.8 112.33 137.988 113.01 137.318C113.69 136.648 114.532 136.222 114.959 135.288L116.227 134.273C116.516 134.034 116.75 133.736 116.913 133.398C117.076 133.061 117.164 132.692 117.172 132.317C117.18 131.943 117.106 131.571 116.957 131.227C116.808 130.883 116.587 130.575 116.309 130.325C115.647 129.67 114.753 129.305 113.822 129.31C111.792 129.401 109.843 131.441 108.95 133.106C108.321 134.253 108.097 136.871 109.082 138.15Z" fill="#FFD200"/>
<path d="M111.559 137.775C111.559 137.775 109.529 137.126 109.204 138.689C108.879 140.252 111.092 140.912 112.249 139.704C111.798 139.163 111.553 138.48 111.559 137.775Z" fill="#F4A28C"/>
<path d="M84.1641 248.918H127.616V217.869H84.1641V248.918Z" fill="#E6E6E6"/>
<path opacity="0.08" d="M116.146 248.917L118.237 221.573L126.946 222.903L129.544 233.388L127.616 248.917H116.146Z" fill="black"/>
<path d="M117.232 245.365C117.232 245.365 118.166 247.953 120.511 248.146C122.855 248.339 123.454 250.633 121.353 251.191C119.252 251.75 113.832 249.08 113.832 249.08L113.984 245.71L117.232 245.365Z" fill="#C5FDB9"/>
<path d="M116.969 151.874L110.28 150.727C110.28 150.727 88.0312 150.727 84.1336 158.38C80.236 166.033 81.0886 194.361 93.9284 217.646L120.318 218.407C120.318 218.407 118.857 201.304 123.769 192.017C128.682 182.73 143.907 162.896 116.969 151.874Z" fill="#94FC7D"/>
<path d="M93.9277 217.645L106.818 215.707C108.676 215.427 110.573 215.575 112.364 216.14C114.156 216.705 115.795 217.671 117.157 218.965C118.519 220.259 119.567 221.847 120.222 223.608C120.877 225.369 121.122 227.256 120.937 229.125L119.252 245.507H112.929L113.466 230.17C113.498 229.313 113.34 228.459 113.002 227.67C112.664 226.881 112.155 226.177 111.513 225.608C110.87 225.039 110.11 224.62 109.286 224.38C108.461 224.141 107.595 224.087 106.747 224.223C101.266 225.146 94.4657 224.771 93.9277 217.645Z" fill="#24285B"/>
<path d="M130.357 245.365C130.357 245.365 131.29 247.953 133.625 248.146C135.959 248.339 136.579 250.633 134.478 251.191C132.377 251.75 126.946 249.08 126.946 249.08L127.099 245.71L130.357 245.365Z" fill="#C5FDB9"/>
<path opacity="0.08" d="M96.1915 161.12C96.1915 161.12 103.489 167.525 102.028 174.599C101.784 175.736 101.541 177.117 101.297 178.659C100.344 184.525 100.699 190.53 102.336 196.243C103.973 201.956 106.852 207.237 110.767 211.708L115.375 216.965L93.9281 217.686L92.0909 214.093L82.083 197.457L96.1915 161.12Z" fill="black"/>
<path d="M107.052 217.646L119.942 215.707C121.799 215.427 123.696 215.575 125.487 216.14C127.279 216.705 128.917 217.671 130.278 218.966C131.639 220.26 132.687 221.848 133.34 223.609C133.994 225.37 134.237 227.256 134.051 229.125L132.366 245.507H126.042L126.591 230.171C126.622 229.313 126.464 228.459 126.126 227.67C125.788 226.881 125.279 226.177 124.637 225.608C123.994 225.04 123.234 224.62 122.41 224.381C121.586 224.141 120.719 224.087 119.871 224.223C114.39 225.146 107.59 224.771 107.052 217.646Z" fill="#24285B"/>
<path d="M83.7582 159.09C78.8761 165.961 74.5421 181.136 78.3077 202.512C78.8726 205.669 80.4792 208.547 82.8709 210.685C85.2626 212.822 88.3016 214.097 91.5027 214.306L111.65 215.564V208.997L96.3646 206.795C95.528 206.672 94.7278 206.37 94.0186 205.91C93.3094 205.45 92.7078 204.842 92.2549 204.128C91.8021 203.414 91.5086 202.611 91.3945 201.773C91.2805 200.935 91.3485 200.083 91.5941 199.274C94.2838 190.392 98.4555 174.315 97.4405 162.845C97.3191 161.299 96.7238 159.827 95.7356 158.631C94.7473 157.435 93.4143 156.573 91.9182 156.163C90.4222 155.752 88.8359 155.813 87.3756 156.336C85.9153 156.86 84.6521 157.822 83.7582 159.09Z" fill="#94FC7D"/>
<path opacity="0.46" d="M83.7582 159.09C78.8761 165.961 74.5421 181.136 78.3077 202.512C78.8726 205.669 80.4792 208.547 82.8709 210.685C85.2626 212.822 88.3016 214.097 91.5027 214.306L111.65 215.564V208.997L96.3646 206.795C95.528 206.672 94.7278 206.37 94.0186 205.91C93.3094 205.45 92.7078 204.842 92.2549 204.128C91.8021 203.414 91.5086 202.611 91.3945 201.773C91.2805 200.935 91.3485 200.083 91.5941 199.274C94.2838 190.392 98.4555 174.315 97.4405 162.845C97.3191 161.299 96.7238 159.827 95.7356 158.631C94.7473 157.435 93.4143 156.573 91.9182 156.163C90.4222 155.752 88.8359 155.813 87.3756 156.336C85.9153 156.86 84.6521 157.822 83.7582 159.09Z" fill="white"/>
<path d="M111.65 210.592C111.65 210.592 119.77 210.378 118.664 214.652C117.558 218.925 111.65 215.575 111.65 215.575V210.592Z" fill="#F4A28C"/>
<path d="M138.862 217.097L142.161 198.441H118.765L116.735 214.346L106.007 214.499V217.097H138.862Z" fill="#FFD200"/>
<path d="M129.545 209.728C130.84 209.728 131.889 208.679 131.889 207.384C131.889 206.089 130.84 205.039 129.545 205.039C128.25 205.039 127.2 206.089 127.2 207.384C127.2 208.679 128.25 209.728 129.545 209.728Z" fill="white"/>
<path d="M104.545 150.97C104.545 150.97 101.724 147.996 109.366 147.671C117.009 147.347 124.652 148.27 122.846 154.776C121.039 161.282 104.545 150.97 104.545 150.97Z" fill="#C5FDB9"/>
<path opacity="0.46" d="M104.545 150.97C104.545 150.97 101.724 147.996 109.366 147.671C117.009 147.347 124.652 148.27 122.846 154.776C121.039 161.282 104.545 150.97 104.545 150.97Z" fill="#94FC7D"/>
<path opacity="0.58" d="M313.28 114.115C313.28 114.115 306.875 112.369 305.475 106.401C305.475 106.401 315.401 104.371 315.686 114.643L313.28 114.115Z" fill="#94FC7D"/>
<path opacity="0.73" d="M314.061 113.476C314.061 113.476 309.585 106.371 313.523 99.7832C313.523 99.7832 321.075 104.584 317.725 113.496L314.061 113.476Z" fill="#94FC7D"/>
<path d="M315.219 113.486C315.219 113.486 317.584 106.016 324.729 104.595C324.729 104.595 326.069 109.446 320.101 113.506L315.219 113.486Z" fill="#94FC7D"/>
<path d="M310.569 113.313L311.869 122.205L320.049 122.235L321.257 113.364L310.569 113.313Z" fill="#24285B"/>
</svg>
