<svg width="406" height="306" viewBox="0 0 406 306" fill="none" xmlns="http://www.w3.org/2000/svg">
<path d="M104.778 215.809L300.592 215.809V73.6172L104.778 73.6172L104.778 215.809Z" fill="#E6E6E6"/>
<path opacity="0.05" d="M295.436 111.7C295.436 111.7 291.376 110.553 289.966 116.704C288.555 122.855 289.215 124.184 292.209 125.727C295.203 127.27 293.67 137.258 288.22 137.044C282.769 136.831 278.334 132.426 275.664 137.044C272.995 141.663 270.295 175.614 259.14 168.246C247.985 160.877 245.488 132.812 245.488 132.812L225.554 132.518V154.533L241.063 154.218C241.063 154.218 243.093 181.258 264.865 187.297C265.949 187.586 266.962 188.092 267.845 188.785C268.727 189.478 269.46 190.342 269.998 191.326C270.536 192.311 270.869 193.394 270.976 194.511C271.082 195.627 270.961 196.754 270.62 197.823L264.763 215.798H298.471V192.088C298.471 192.088 300.075 118.49 295.436 111.7Z" fill="black"/>
<path opacity="0.45" d="M296.989 251.638C329.311 251.638 355.514 247.734 355.514 242.919C355.514 238.104 329.311 234.2 296.989 234.2C264.666 234.2 238.464 238.104 238.464 242.919C238.464 247.734 264.666 251.638 296.989 251.638Z" fill="#E6E6E6"/>
<path opacity="0.45" d="M91.9387 251.638C120.163 251.638 143.044 247.734 143.044 242.919C143.044 238.104 120.163 234.2 91.9387 234.2C63.7141 234.2 40.8335 238.104 40.8335 242.919C40.8335 247.734 63.7141 251.638 91.9387 251.638Z" fill="#E6E6E6"/>
<path opacity="0.58" d="M339.781 234.2C339.781 234.2 345.749 232.597 347.069 227.095C347.069 227.095 337.843 225.187 337.538 234.718L339.781 234.2Z" fill="#94FC7D"/>
<path opacity="0.73" d="M339.01 233.622C339.01 233.622 343.202 227.065 339.569 220.894C337.551 222.241 336.058 224.241 335.337 226.557C334.617 228.874 334.713 231.367 335.61 233.622H339.01Z" fill="#94FC7D"/>
<path d="M337.995 233.621C337.995 233.621 335.823 226.668 329.185 225.318C329.185 225.318 327.916 229.825 333.448 233.621H337.995Z" fill="#94FC7D"/>
<path d="M342.309 233.489L341.06 241.741H333.458L332.372 233.489H342.309Z" fill="#24285B"/>
<path d="M294.452 132.822C294.452 132.822 281.774 131.127 279.227 141.724C276.679 152.32 276.324 166.987 266.133 169.92C255.943 172.854 250.319 152.493 250.319 152.493C250.319 152.493 247.955 146.778 245.407 145.997C242.859 145.215 241.042 150.859 245.407 154.31C245.407 154.31 249.091 180.314 268.61 179.401C288.128 178.487 294.452 151.681 294.452 132.822Z" fill="#F4A28C"/>
<path opacity="0.08" d="M294.452 132.822C294.452 132.822 281.774 131.127 279.227 141.724C276.679 152.32 276.324 166.987 266.133 169.92C255.943 172.854 250.319 152.493 250.319 152.493C250.319 152.493 247.955 146.778 245.407 145.997C242.859 145.215 241.042 150.859 245.407 154.31C245.407 154.31 249.091 180.314 268.61 179.401C288.128 178.487 294.452 151.681 294.452 132.822Z" fill="black"/>
<path d="M294.451 132.822C294.451 132.822 280.84 130.133 278.932 141.135C277.893 147.439 276.126 153.601 273.664 159.496L284.058 162.866L294.451 132.822Z" fill="#94FC7D"/>
<path opacity="0.46" d="M294.451 132.822C294.451 132.822 280.84 130.133 278.932 141.135C277.893 147.439 276.126 153.601 273.664 159.496L284.058 162.866L294.451 132.822Z" fill="white"/>
<path d="M295.101 114.948C294.139 117.007 293.457 119.184 293.071 121.424C293.04 121.694 293.064 121.967 293.14 122.228C293.217 122.488 293.345 122.731 293.518 122.941C293.69 123.151 293.903 123.325 294.143 123.451C294.384 123.577 294.647 123.654 294.918 123.677C295.779 123.818 296.663 123.707 297.462 123.358C298.262 123.008 298.943 122.435 299.425 121.708L301.81 118.785C302.227 118.148 302.435 117.398 302.406 116.637C302.377 115.877 302.112 115.145 301.647 114.542C300.044 112.187 296.045 112.634 295.101 114.948Z" fill="#F4A28C"/>
<path d="M300.886 119.454L301.851 132.822H294.451L296.664 123.342L300.886 119.454Z" fill="#F4A28C"/>
<path d="M294.116 117.333L292.502 118.409C292.41 118.469 292.334 118.551 292.282 118.647C292.23 118.744 292.202 118.852 292.202 118.962C292.202 119.072 292.23 119.18 292.282 119.277C292.334 119.373 292.41 119.455 292.502 119.515L293.862 120.337L294.116 117.333Z" fill="#F4A28C"/>
<path opacity="0.31" d="M296.603 123.565C297.494 123.408 298.326 123.012 299.009 122.418C299.009 122.418 299.496 125.311 295.964 126.285L296.603 123.565Z" fill="#CE8172"/>
<path d="M298.471 119.292C298.471 119.292 299.049 117.82 300.115 118.348C301.181 118.875 300.369 120.997 298.785 120.631L298.471 119.292Z" fill="#F4A28C"/>
<path d="M281.074 208.927L274.812 237.387H278.455L290.635 208.927H281.074Z" fill="#F4A28C"/>
<path d="M301.445 205.476L308.124 237.387H311.788L311.23 205.242L301.445 205.476Z" fill="#F4A28C"/>
<path d="M274.811 237.387C274.811 237.387 272.781 239.945 270.203 239.823C267.625 239.701 267.24 243.345 271.401 242.969C272.697 242.861 273.98 242.64 275.238 242.309C276.396 242.045 277.603 242.087 278.74 242.431C278.961 242.486 279.195 242.47 279.407 242.386C279.62 242.303 279.802 242.155 279.927 241.964C281.104 240.574 278.212 237.387 278.212 237.387H274.811Z" fill="#94FC7D"/>
<path d="M311.514 237.387C311.514 237.387 313.544 239.945 316.122 239.823C318.7 239.701 319.086 243.345 314.934 242.969C313.639 242.862 312.355 242.641 311.098 242.309C309.936 242.045 308.726 242.087 307.586 242.431C307.365 242.486 307.133 242.471 306.922 242.387C306.711 242.303 306.531 242.156 306.408 241.964C305.221 240.574 308.124 237.387 308.124 237.387H311.514Z" fill="#94FC7D"/>
<path d="M294.452 132.822H301.851C301.851 132.822 302.359 132.822 303.232 132.822C319.38 133.34 328.759 151.275 320.182 164.967C315.412 172.58 309.718 182.841 309.342 188.972L280.567 187.51C280.567 187.51 282.739 168.845 277.41 158.177C277.41 158.187 267.605 141.389 294.452 132.822Z" fill="#94FC7D"/>
<path opacity="0.08" d="M307.302 142.597C307.302 142.597 303.729 149.996 302.876 163.303C302.024 176.609 281.835 160.887 281.835 160.887L280.901 182.872L310.286 184.465L312.732 175.554C312.732 175.554 320.436 161.719 307.302 142.597Z" fill="black"/>
<path d="M280.377 180.428L299.562 178.182L296.09 148.543L276.906 150.79L280.377 180.428Z" fill="#FFD200"/>
<path d="M282.367 152.667L291.299 151.621L290.79 147.276L281.858 148.322L282.367 152.667Z" fill="#24285B"/>
<path d="M280.901 182.871L310.286 184.424L318.142 214.184L275.664 212.671L280.901 182.871Z" fill="#24285B"/>
<path opacity="0.08" d="M278.069 160.927L298.471 169.067L299.547 178.212L280.363 180.466L278.069 160.927Z" fill="black"/>
<path d="M307.545 144.017C307.497 142.708 307.86 141.416 308.584 140.324C309.307 139.232 310.356 138.394 311.581 137.929C312.805 137.464 314.145 137.395 315.412 137.731C316.678 138.068 317.807 138.793 318.639 139.805C322.811 144.811 325.019 151.164 324.851 157.679C324.607 175.096 322.263 193.955 284.688 173.35L286.717 167.829C286.717 167.829 303.394 175.847 310.357 173.249C315.472 171.32 308.073 155.984 307.545 144.017Z" fill="#F4A28C"/>
<path d="M286.707 167.819C286.707 167.819 280.445 164.845 277.775 167.819C275.106 170.793 279.349 173.462 284.687 173.34L286.707 167.819Z" fill="#F4A28C"/>
<path d="M294.451 112.979L293.162 116.196L298.471 118.226C298.471 118.226 298.775 121.799 296.897 122.449C297.333 122.426 297.759 122.317 298.151 122.127C298.544 121.937 298.894 121.67 299.181 121.342C299.405 121.097 299.715 120.948 300.047 120.927C300.378 120.906 300.705 121.015 300.957 121.231L301.018 121.292C302.542 119.794 303.615 117.898 304.114 115.821C304.723 112.674 301.201 112.187 301.201 112.187C301.201 112.187 296.542 108.919 294.451 112.979Z" fill="#24285B"/>
<path d="M301.201 112.197C301.201 112.197 301.445 109.152 306.905 109.65C312.366 110.147 306.905 117.496 311.392 124.367C311.392 124.367 303.14 122.621 302.906 115.232L301.201 112.197Z" fill="#24285B"/>
<path d="M300.866 111.984C301.28 111.759 301.75 111.66 302.219 111.7C302.688 111.74 303.135 111.916 303.505 112.207C305.048 113.222 305.728 116.745 303.292 117.973C303.292 117.973 305.312 113.141 300.866 111.984Z" fill="#FFD200"/>
<path d="M309.93 162.866H325.937C325.937 162.866 327.693 139.521 314.447 136.476C301.201 133.431 309.93 162.866 309.93 162.866Z" fill="#94FC7D"/>
<path opacity="0.46" d="M309.93 162.866H325.937C325.937 162.866 327.693 139.521 314.447 136.476C301.201 133.431 309.93 162.866 309.93 162.866Z" fill="white"/>
<path d="M233.481 150.808H257.485V130.782H233.481V150.808Z" fill="#24285B"/>
<path opacity="0.62" d="M254.988 147.702L249.264 137.491L245.255 145.053L240.403 138.638L235.541 147.702H254.988Z" fill="white"/>
<path d="M244.371 138.252C245.425 138.252 246.279 137.398 246.279 136.344C246.279 135.29 245.425 134.436 244.371 134.436C243.317 134.436 242.463 135.29 242.463 136.344C242.463 137.398 243.317 138.252 244.371 138.252Z" fill="white"/>
<path opacity="0.05" d="M119.273 142.292L106.544 142.637L102.353 215.809H120.623C121.638 212.327 124.277 194.22 134.203 183.735C143.968 173.412 183.837 146.657 169.231 128.59C162.126 119.79 150.189 153.386 150.189 153.386L131.392 155.619L132.681 154.949L119.273 142.292Z" fill="black"/>
<path d="M91.2181 124.022L93.3293 130.345L88.3254 133.522L86.5288 122.57L91.2181 124.022Z" fill="#F4A28C"/>
<path d="M84.8133 116.46C85.072 115.852 85.4799 115.319 85.9991 114.911C86.5183 114.503 87.132 114.232 87.7837 114.123C88.4353 114.015 89.1037 114.073 89.727 114.292C90.3504 114.51 90.9085 114.882 91.3499 115.374C93.4713 117.647 96.0392 121.261 93.1363 123.22C88.7008 126.265 84.6205 120.611 84.6205 120.611C84.2696 119.239 84.3367 117.793 84.8133 116.46Z" fill="#F4A28C"/>
<path d="M88.0613 120.337C88.0613 120.337 86.9144 119.383 86.4069 120.743C85.8994 122.103 87.8989 122.773 88.4978 122.062C89.0966 121.352 88.0613 120.337 88.0613 120.337Z" fill="#F4A28C"/>
<path d="M78.0131 136.76C78.0131 136.76 57.4492 149.163 54.7391 178.375C54.5054 180.802 55.1533 183.232 56.5642 185.221C57.9751 187.209 60.0547 188.624 62.4227 189.205L86.5289 195.021L78.0131 136.76Z" fill="#94FC7D"/>
<path opacity="0.2" d="M78.0131 136.76C78.0131 136.76 57.4492 149.163 54.7391 178.375C54.5054 180.802 55.1533 183.232 56.5642 185.221C57.9751 187.209 60.0547 188.624 62.4227 189.205L86.5289 195.021L78.0131 136.76Z" fill="white"/>
<path d="M86.6468 172.171L55.0493 186.69L64.5427 207.35L96.1402 192.83L86.6468 172.171Z" fill="#FFD200"/>
<path d="M88.6907 118.703C88.6907 118.703 91.0455 125.463 86.9347 125.037C82.824 124.61 85.0671 121.707 83.027 118.703C80.9868 115.699 82.012 113.628 85.1788 111.019C86.6099 109.812 87.564 109.243 88.1426 108.604C88.3845 108.319 88.6947 108.1 89.044 107.968C89.3934 107.835 89.7706 107.794 90.1404 107.846C90.5103 107.899 90.8608 108.045 91.1593 108.269C91.4577 108.494 91.6944 108.791 91.8473 109.131C92.9131 111.73 92.9232 115.201 88.6907 118.703Z" fill="#24285B"/>
<path d="M73.2527 142.85C74.2285 140.683 75.6603 138.751 77.4505 137.187C79.2406 135.622 81.347 134.463 83.626 133.786C92.426 131.147 109.123 125.605 114.076 133.786C120.826 145.043 110.432 189.246 110.432 189.246L80.8652 191.57C80.8652 191.57 64.615 162.247 73.2527 142.85Z" fill="#94FC7D"/>
<path d="M110.412 189.266L106.524 240.066H100.383L94.8922 200.593L81.3115 191.56L110.412 189.266Z" fill="#24285B"/>
<path d="M81.3117 191.56L72.8364 240.066H79.4238L93.6439 199.771L81.3117 191.56Z" fill="#24285B"/>
<path opacity="0.08" d="M86.1834 132.994C86.1834 132.994 72.3591 177.512 112.269 180.456L110.411 189.266L80.8648 191.57C74.0753 179.598 70.6325 166.019 70.8975 152.259C70.8975 152.259 71.1513 140.911 79.1393 135.887C81.2555 134.434 83.6567 133.448 86.1834 132.994Z" fill="black"/>
<path d="M74.0341 240.066L69.9741 243.111C69.8242 243.225 69.7133 243.382 69.6569 243.561C69.6005 243.74 69.6014 243.933 69.6595 244.111C69.7175 244.29 69.8299 244.446 69.9809 244.558C70.1319 244.67 70.314 244.732 70.5019 244.735H77.3531C77.591 244.735 77.8192 244.642 77.9883 244.474C78.1575 244.307 78.2538 244.08 78.2565 243.842V240.107L74.0341 240.066Z" fill="#94FC7D"/>
<path d="M106.352 240.066L110.198 243.111C110.35 243.226 110.462 243.386 110.518 243.568C110.574 243.751 110.57 243.946 110.508 244.126C110.446 244.306 110.329 244.462 110.173 244.571C110.017 244.681 109.831 244.738 109.64 244.735H104.758C104.069 244.735 103.408 244.462 102.921 243.974C102.433 243.487 102.16 242.826 102.16 242.137V240.107L106.352 240.066Z" fill="#94FC7D"/>
<path d="M166.785 129.229L162.4 127.939L142.922 144.88C141.49 146.12 139.757 146.961 137.896 147.318C136.036 147.674 134.114 147.533 132.326 146.91C127.03 145.108 122.526 141.52 119.587 136.76C112.604 125.432 100.739 129.523 100.739 129.523C100.739 129.523 91.7966 138.333 109.508 153.446C120.085 162.47 130.915 163.038 137.928 162.033C138.784 161.93 139.645 161.872 140.506 161.861C141.335 161.832 142.151 161.65 142.912 161.323C143.854 160.919 144.773 160.462 145.663 159.953C152.849 155.801 160.593 147.011 166.785 129.229Z" fill="#94FC7D"/>
<path opacity="0.2" d="M166.785 129.229L162.4 127.939L142.922 144.88C141.49 146.12 139.757 146.961 137.896 147.318C136.036 147.674 134.114 147.533 132.326 146.91C127.03 145.108 122.526 141.52 119.587 136.76C112.604 125.432 100.739 129.523 100.739 129.523C100.739 129.523 91.7966 138.333 109.508 153.446C120.085 162.47 130.915 163.038 137.928 162.033C138.784 161.93 139.645 161.872 140.506 161.861C141.335 161.832 142.151 161.65 142.912 161.323C143.854 160.919 144.773 160.462 145.663 159.953C152.849 155.801 160.593 147.011 166.785 129.229Z" fill="white"/>
<path d="M162.4 127.939C162.4 127.939 164.867 120.834 166.826 120.337C168.785 119.84 166.826 124.133 166.826 124.133C166.826 124.133 172.205 126.772 166.826 129.208L162.4 127.939Z" fill="#F4A28C"/>
<path opacity="0.55" d="M183.786 146.656L179.624 151.873C175.198 157.427 173.109 164.486 173.798 171.554L174.6 179.674L186.78 168.611L183.786 146.656Z" fill="#878787"/>
<path opacity="0.55" d="M213.008 146.656L217.169 151.873C221.599 157.425 223.689 164.486 222.995 171.554L222.203 179.674L210.023 168.611L213.008 146.656Z" fill="#878787"/>
<path opacity="0.55" d="M192.85 170.336C192.85 170.336 196.646 192.666 190.404 194.544C184.162 196.421 181.269 186.342 173.027 192.341C164.785 198.34 175.351 204.947 160.796 203.11C146.241 201.273 140.598 208.449 144.029 215.808H251.446C251.446 215.808 256.836 208.977 250.837 204.328C249.533 203.347 248.033 202.658 246.44 202.308C244.846 201.958 243.196 201.955 241.601 202.298C241.16 202.373 240.709 202.349 240.279 202.23C239.849 202.111 239.45 201.898 239.111 201.608C238.772 201.317 238.501 200.956 238.317 200.549C238.134 200.142 238.042 199.7 238.048 199.253C238.109 197.051 237.733 194.554 236.018 193.031C233.988 191.174 229.674 193.112 226.467 195.061C222.825 197.306 218.539 198.27 214.287 197.802C210.562 197.355 206.745 196.117 205.71 193.052C203.508 186.566 204.847 169.899 204.847 169.899L192.85 170.336Z" fill="white"/>
<path d="M198.412 100.332C198.412 100.332 167.657 117.211 186.79 168.601H210.044C229.176 117.211 198.412 100.332 198.412 100.332Z" fill="#C1C1C1"/>
<path d="M210.044 168.601L209.008 172.539H187.907L186.79 168.134L210.044 168.601Z" fill="#878787"/>
<path d="M198.636 138.373C202.997 138.373 206.533 134.838 206.533 130.477C206.533 126.116 202.997 122.58 198.636 122.58C194.275 122.58 190.739 126.116 190.739 130.477C190.739 134.838 194.275 138.373 198.636 138.373Z" fill="#E6E6E6"/>
<path d="M118.785 93.0746C121.515 93.0746 123.728 90.8615 123.728 88.1315C123.728 85.4016 121.515 83.1885 118.785 83.1885C116.055 83.1885 113.842 85.4016 113.842 88.1315C113.842 90.8615 116.055 93.0746 118.785 93.0746Z" fill="#FFD200"/>
<path d="M132.691 93.0746C135.421 93.0746 137.634 90.8615 137.634 88.1315C137.634 85.4016 135.421 83.1885 132.691 83.1885C129.961 83.1885 127.748 85.4016 127.748 88.1315C127.748 90.8615 129.961 93.0746 132.691 93.0746Z" fill="#94FC7D"/>
<path d="M146.018 93.0746C148.748 93.0746 150.961 90.8615 150.961 88.1315C150.961 85.4016 148.748 83.1885 146.018 83.1885C143.288 83.1885 141.075 85.4016 141.075 88.1315C141.075 90.8615 143.288 93.0746 146.018 93.0746Z" fill="#24285B"/>
<path d="M286.707 58.7676H220.123V104.94H286.707V58.7676Z" fill="#F4F4F4"/>
<path d="M243.367 85.4014H235.876V94.983H243.367V85.4014Z" fill="#C1C1C1"/>
<path d="M257.364 78.0322H249.873V94.9827H257.364V78.0322Z" fill="#C1C1C1"/>
<path d="M271.096 70.5107H263.605V94.9824H271.096V70.5107Z" fill="#C1C1C1"/>
</svg>
