<svg width="406" height="306" viewBox="0 0 406 306" fill="none" xmlns="http://www.w3.org/2000/svg">
<path d="M182.314 49.3481H47.3193V169.108H182.314V49.3481Z" fill="#212527" fill-opacity="0.21"/>
<path d="M182.314 150.503H47.3193V169.108H182.314V150.503Z" fill="#E6E6E6"/>
<path d="M58.6266 164.835C61.7266 164.835 64.2396 162.322 64.2396 159.222C64.2396 156.122 61.7266 153.609 58.6266 153.609C55.5267 153.609 53.0137 156.122 53.0137 159.222C53.0137 162.322 55.5267 164.835 58.6266 164.835Z" fill="#94FC7D"/>
<path d="M72.1559 164.835C75.2559 164.835 77.7689 162.322 77.7689 159.222C77.7689 156.122 75.2559 153.609 72.1559 153.609C69.056 153.609 66.543 156.122 66.543 159.222C66.543 162.322 69.056 164.835 72.1559 164.835Z" fill="#FFD200"/>
<path d="M74.7647 160.643C74.5293 160.391 74.2552 160.179 73.9527 160.014C73.883 159.973 73.8248 159.916 73.7839 159.846C73.743 159.777 73.7208 159.698 73.7193 159.618L73.6279 158.826C72.9123 158.557 72.1282 158.528 71.3949 158.745L71.263 159.516C71.2585 159.6 71.2317 159.681 71.1852 159.75C71.1388 159.82 71.0745 159.876 70.9991 159.912C70.6841 160.055 70.3958 160.251 70.1465 160.491C70.1049 160.533 70.0552 160.567 70.0002 160.59C69.9453 160.614 69.8863 160.626 69.8268 160.626C69.7672 160.626 69.7082 160.614 69.6533 160.59C69.5984 160.567 69.5486 160.533 69.507 160.491L68.7965 159.729C68.7122 159.642 68.665 159.526 68.665 159.405C68.665 159.283 68.7122 159.167 68.7965 159.08C69.809 158.14 71.1525 157.639 72.5333 157.686C73.9142 157.734 75.22 158.326 76.1654 159.334C76.2081 159.375 76.242 159.425 76.2651 159.48C76.2883 159.535 76.3002 159.594 76.3002 159.653C76.3002 159.713 76.2883 159.772 76.2651 159.827C76.242 159.882 76.2081 159.931 76.1654 159.973L75.4042 160.684C75.3599 160.724 75.3081 160.755 75.2517 160.774C75.1953 160.794 75.1355 160.802 75.0759 160.798C75.0162 160.795 74.958 160.779 74.9045 160.752C74.8511 160.726 74.8036 160.688 74.7647 160.643Z" fill="white"/>
<path d="M85.6969 164.835C88.7969 164.835 91.3099 162.322 91.3099 159.222C91.3099 156.122 88.7969 153.609 85.6969 153.609C82.597 153.609 80.084 156.122 80.084 159.222C80.084 162.322 82.597 164.835 85.6969 164.835Z" fill="#94FC7D"/>
<path d="M59.8951 157.222H55.1348V161.221H59.8951V157.222Z" fill="white"/>
<path d="M62.1078 160.826L60.5244 160.298V158.288L62.1078 157.76V160.826Z" fill="white"/>
<path d="M85.6967 155.345H85.6865C84.7896 155.345 84.0625 156.072 84.0625 156.969V159.445C84.0625 160.342 84.7896 161.069 85.6865 161.069H85.6967C86.5936 161.069 87.3206 160.342 87.3206 159.445V156.969C87.3206 156.072 86.5936 155.345 85.6967 155.345Z" fill="white"/>
<path d="M86.0418 160.531H85.3516V162.46H86.0418V160.531Z" fill="white"/>
<path d="M87.1279 162.277H84.2656V163.089H87.1279V162.277Z" fill="white"/>
<path d="M365.512 49.3481H207.172V218.244H365.512V49.3481Z" fill="#212527" fill-opacity="0.21"/>
<path d="M365.512 196.412H207.172V218.234H365.512V196.412Z" fill="#E6E6E6"/>
<path d="M220.428 213.22C224.06 213.22 227.005 210.275 227.005 206.643C227.005 203.01 224.06 200.065 220.428 200.065C216.795 200.065 213.851 203.01 213.851 206.643C213.851 210.275 216.795 213.22 220.428 213.22Z" fill="#94FC7D"/>
<path d="M236.313 213.22C239.945 213.22 242.89 210.275 242.89 206.643C242.89 203.01 239.945 200.065 236.313 200.065C232.68 200.065 229.735 203.01 229.735 206.643C229.735 210.275 232.68 213.22 236.313 213.22Z" fill="#FFD200"/>
<path d="M239.368 208.307C239.092 208.01 238.77 207.76 238.414 207.566C238.332 207.521 238.263 207.455 238.215 207.375C238.167 207.295 238.141 207.203 238.14 207.11L238.038 206.176C237.195 205.862 236.272 205.83 235.409 206.085L235.257 206.988C235.252 207.086 235.221 207.18 235.167 207.262C235.114 207.344 235.04 207.411 234.952 207.455C234.581 207.623 234.238 207.849 233.937 208.125C233.888 208.174 233.83 208.214 233.765 208.241C233.701 208.268 233.632 208.282 233.562 208.282C233.492 208.282 233.423 208.268 233.358 208.241C233.294 208.214 233.235 208.174 233.186 208.125L232.354 207.232C232.304 207.182 232.264 207.122 232.237 207.057C232.21 206.992 232.196 206.922 232.196 206.851C232.196 206.78 232.21 206.71 232.237 206.645C232.264 206.58 232.304 206.52 232.354 206.47C232.939 205.918 233.628 205.488 234.381 205.204C235.134 204.919 235.935 204.787 236.739 204.815C237.543 204.842 238.334 205.028 239.066 205.363C239.797 205.698 240.455 206.174 241.002 206.765C241.053 206.813 241.093 206.871 241.121 206.936C241.149 207 241.163 207.07 241.163 207.14C241.163 207.21 241.149 207.28 241.121 207.345C241.093 207.409 241.053 207.467 241.002 207.516L240.119 208.348C240.067 208.395 240.007 208.432 239.941 208.455C239.875 208.479 239.805 208.489 239.735 208.485C239.665 208.481 239.596 208.464 239.533 208.433C239.47 208.403 239.414 208.36 239.368 208.307Z" fill="white"/>
<path d="M252.187 213.22C255.819 213.22 258.764 210.275 258.764 206.643C258.764 203.01 255.819 200.065 252.187 200.065C248.554 200.065 245.609 203.01 245.609 206.643C245.609 210.275 248.554 213.22 252.187 213.22Z" fill="#94FC7D"/>
<path d="M221.93 204.298H216.348V208.987H221.93V204.298Z" fill="white"/>
<path d="M224.518 208.52L222.671 207.901V205.546L224.518 204.927V208.52Z" fill="white"/>
<path d="M252.43 202.096H251.943C251.024 202.096 250.278 202.841 250.278 203.76V207.15C250.278 208.07 251.024 208.815 251.943 208.815H252.43C253.349 208.815 254.095 208.07 254.095 207.15V203.76C254.095 202.841 253.349 202.096 252.43 202.096Z" fill="white"/>
<path d="M252.593 208.175H251.781V210.439H252.593V208.175Z" fill="white"/>
<path d="M253.862 210.226H250.502V211.18H253.862V210.226Z" fill="white"/>
<path d="M193.023 195.803H99.9775V264.346H193.023V195.803Z" fill="#212527" fill-opacity="0.21"/>
<path d="M193.023 182.973H99.9775V195.803H193.023V182.973Z" fill="#E6E6E6"/>
<path d="M107.772 193.255C109.908 193.255 111.64 191.523 111.64 189.388C111.64 187.252 109.908 185.521 107.772 185.521C105.637 185.521 103.905 187.252 103.905 189.388C103.905 191.523 105.637 193.255 107.772 193.255Z" fill="#94FC7D"/>
<path d="M117.101 193.255C119.236 193.255 120.968 191.523 120.968 189.388C120.968 187.252 119.236 185.521 117.101 185.521C114.965 185.521 113.233 187.252 113.233 189.388C113.233 191.523 114.965 193.255 117.101 193.255Z" fill="#FFD200"/>
<path d="M118.897 190.372C118.737 190.196 118.549 190.048 118.339 189.936C118.289 189.91 118.248 189.87 118.219 189.822C118.19 189.773 118.176 189.718 118.177 189.662L118.116 189.114C117.621 188.93 117.079 188.912 116.573 189.063L116.482 189.591C116.482 189.649 116.465 189.707 116.432 189.756C116.4 189.804 116.353 189.842 116.299 189.865C116.087 189.966 115.891 190.099 115.72 190.261C115.691 190.29 115.656 190.313 115.618 190.329C115.58 190.345 115.538 190.353 115.497 190.353C115.455 190.353 115.414 190.345 115.376 190.329C115.338 190.313 115.303 190.29 115.274 190.261L114.786 189.733C114.757 189.704 114.734 189.67 114.718 189.633C114.702 189.595 114.694 189.555 114.694 189.515C114.694 189.474 114.702 189.434 114.718 189.396C114.734 189.359 114.757 189.325 114.786 189.296C115.481 188.645 116.406 188.297 117.358 188.328C118.309 188.358 119.21 188.765 119.861 189.459C119.891 189.488 119.914 189.523 119.93 189.561C119.946 189.599 119.954 189.64 119.954 189.682C119.954 189.723 119.946 189.765 119.93 189.803C119.914 189.841 119.891 189.876 119.861 189.905L119.344 190.392C119.313 190.421 119.277 190.442 119.238 190.457C119.199 190.471 119.158 190.477 119.116 190.475C119.075 190.474 119.034 190.463 118.996 190.446C118.959 190.428 118.925 190.403 118.897 190.372Z" fill="white"/>
<path d="M126.429 193.255C128.564 193.255 130.296 191.523 130.296 189.388C130.296 187.252 128.564 185.521 126.429 185.521C124.293 185.521 122.562 187.252 122.562 189.388C122.562 191.523 124.293 193.255 126.429 193.255Z" fill="#94FC7D"/>
<path d="M108.646 188.007H105.367V190.768H108.646V188.007Z" fill="white"/>
<path d="M110.178 190.494L109.082 190.139V188.748L110.178 188.383V190.494Z" fill="white"/>
<path d="M127.555 187.845C127.555 187.223 127.053 186.718 126.433 186.718C125.814 186.718 125.312 187.223 125.312 187.845V189.54C125.312 190.162 125.814 190.667 126.433 190.667C127.053 190.667 127.555 190.162 127.555 189.54V187.845Z" fill="white"/>
<path d="M126.672 190.291H126.195V191.621H126.672V190.291Z" fill="white"/>
<path d="M127.412 191.499H125.443V192.057H127.412V191.499Z" fill="white"/>
<path d="M240.423 231.866H207.172V264.173H240.423V231.866Z" fill="#212527" fill-opacity="0.21"/>
<path d="M365.501 235.418H253.861V240.493H365.501V235.418Z" fill="#212527" fill-opacity="0.21"/>
<path d="M365.501 245.487H253.861V250.562H365.501V245.487Z" fill="#212527" fill-opacity="0.21"/>
<path d="M345.211 255.556H253.861V260.631H345.211V255.556Z" fill="#212527" fill-opacity="0.21"/>
<path opacity="0.58" d="M64.3615 244.594C64.3615 244.594 49.7354 240.605 46.5889 227.014C46.5889 227.014 69.2132 222.436 69.8527 245.791L64.3615 244.594Z" fill="#94FC7D"/>
<path opacity="0.73" d="M66.1582 243.142C66.1582 243.142 55.9473 227.014 64.9605 211.931C64.9605 211.931 82.2155 222.852 74.5218 243.172L66.1582 243.142Z" fill="#94FC7D"/>
<path d="M68.7861 243.153C68.7861 243.153 74.1758 226.121 90.4665 222.853C90.4665 222.853 93.5115 233.916 79.9207 243.153H68.7861Z" fill="#94FC7D"/>
<path d="M58.1904 242.767L61.1542 263.016L79.7998 263.097L82.5403 242.868L58.1904 242.767Z" fill="#24285B"/>
<path d="M139.38 81.9501C139.38 81.9501 165.211 86.8323 180.771 81.3208C196.331 75.8094 185.999 55.7327 170.418 45.1564L177.229 39.4927C177.229 39.4927 218.996 66.9992 196.341 97.8856C173.687 128.772 118.186 123.047 139.38 81.9501Z" fill="#94FC7D"/>
<path opacity="0.46" d="M139.38 81.9501C139.38 81.9501 165.211 86.8323 180.771 81.3208C196.331 75.8094 185.999 55.7327 170.418 45.1564L177.229 39.4927C177.229 39.4927 218.996 66.9992 196.341 97.8856C173.687 128.772 118.186 123.047 139.38 81.9501Z" fill="white"/>
<path d="M82.9051 150.503H150.91C157.081 136.05 177.554 80.5697 128.438 80.722C124.433 80.7735 120.437 81.1127 116.481 81.737C114.827 81.9806 113.111 82.2749 111.325 82.62C111.325 82.62 64.7366 81.8689 69.1011 106.706C72.41 125.412 79.586 143.002 82.9051 150.503Z" fill="#94FC7D"/>
<path opacity="0.08" d="M122.815 95.4494C115.03 99.347 113.741 91.562 113.741 91.562C112.381 89.5929 114.147 85.2588 116.441 81.6962C120.397 81.0718 124.393 80.7326 128.397 80.6812C128.59 85.543 127.89 92.9119 122.815 95.4494Z" fill="black"/>
<path d="M112.157 82.7618C112.494 83.8511 112.765 84.9594 112.969 86.0809C113.233 87.6135 114.056 89.8465 116.563 89.9582C120.43 90.1206 120.623 84.0306 120.623 84.0306C120.623 84.0306 122.206 78.1131 118.014 77.9406C114.218 77.7477 110.696 77.7376 112.157 82.7618Z" fill="#F4A28C"/>
<path d="M120.389 84.3049C120.389 84.3049 120.389 82.4576 121.931 82.2749C123.474 82.0922 123.373 85.6346 120.389 84.3049Z" fill="#F4A28C"/>
<path d="M113.305 84.2744C113.305 84.2744 113.609 82.4575 112.066 82.082C110.524 81.7064 110.148 85.1473 113.305 84.2744Z" fill="#F4A28C"/>
<path opacity="0.08" d="M87.8989 150.503H138.304C138.304 150.503 86.5388 141.886 93.8366 127.97C101.134 114.055 93.8366 98.5859 93.8366 98.5859L70.1973 114.044L73.9629 139.419L87.8989 150.503Z" fill="black"/>
<path d="M112.158 82.7618C112.158 82.7618 105.936 82.7618 108.037 77.8695C110.138 72.9772 111.204 76.2759 112.005 72.6219C112.807 68.9679 113.873 68.1255 115.974 69.3536C118.075 70.5818 116.674 73.9313 119.405 72.6625C122.135 71.3938 123.972 70.2976 124.855 72.5813C125.738 74.8651 125.353 76.0831 123.617 77.1488C121.881 78.2146 125.231 81.0058 120.795 82.9546C116.36 84.9034 113.234 80.1837 113.234 80.1837L112.158 82.7618Z" fill="#24285B"/>
<path d="M64.838 150.503H116.167L115.466 147.559C115.466 147.559 71.1513 141.835 76.277 127.899C80.54 116.277 100.799 110.146 92.6591 96.0989C91.7729 94.615 90.6021 93.3209 89.214 92.291C87.8259 91.2612 86.2479 90.5159 84.5708 90.098C82.8936 89.6801 81.1505 89.5979 79.4414 89.8561C77.7324 90.1143 76.0913 90.7078 74.6124 91.6024C62.5238 98.7988 43.7361 113.608 48.8314 134.111C50.8817 142.352 57.0326 147.448 64.838 150.503Z" fill="#94FC7D"/>
<path opacity="0.46" d="M64.838 150.503H116.167L115.466 147.559C115.466 147.559 71.1513 141.835 76.277 127.899C80.54 116.277 100.799 110.146 92.6591 96.0989C91.7729 94.615 90.6021 93.3209 89.214 92.291C87.8259 91.2612 86.2479 90.5159 84.5708 90.098C82.8936 89.6801 81.1505 89.5979 79.4414 89.8561C77.7324 90.1143 76.0913 90.7078 74.6124 91.6024C62.5238 98.7988 43.7361 113.608 48.8314 134.111C50.8817 142.352 57.0326 147.448 64.838 150.503Z" fill="white"/>
<path d="M172.144 43.7354C171.423 44.3241 169.748 41.5734 169.576 41.1776C168.764 39.3289 168.102 37.4179 167.597 35.4631C168.538 35.8338 169.314 36.5334 169.779 37.4322C169.921 35.8184 169.19 34.1335 169.718 32.6008C169.793 32.279 169.978 31.9935 170.241 31.7934C170.505 31.5933 170.829 31.4912 171.159 31.5046C172.915 31.4539 174.286 33.0271 175.047 34.6105C175.717 35.8304 176.317 37.0877 176.843 38.3762C177.249 39.5637 176.63 39.9799 175.747 40.731C174.58 41.746 173.342 42.7305 172.144 43.7354Z" fill="#F4A28C"/>
<path d="M125.678 150.503C125.77 150.438 125.848 150.355 125.907 150.259C125.967 150.163 126.006 150.056 126.024 149.945C126.042 149.833 126.038 149.72 126.012 149.61C125.985 149.5 125.937 149.397 125.871 149.306C124.196 146.799 115.467 147.56 115.467 147.56L116.167 150.503H125.678Z" fill="#F4A28C"/>
<path d="M92.9334 182.973H47.3193V206.633H92.9334V182.973Z" fill="#212527" fill-opacity="0.21"/>
<path d="M175.381 217.96C175.381 217.96 188.323 224.608 192.758 221.563C197.194 218.518 198.463 201.72 198.463 201.72L204.553 203.06C204.553 203.06 206.887 236.464 196.615 239.925C186.343 243.386 168.378 234.525 168.378 234.525L175.381 217.96Z" fill="#F4A28C"/>
<path d="M140.07 217.96C144.333 226.435 153.682 237.803 173.515 239.894L177.757 218.579C177.757 218.579 162.674 209.048 146.719 207.871C145.494 207.792 144.27 208.038 143.171 208.584C142.072 209.131 141.138 209.959 140.463 210.984C139.787 212.008 139.395 213.194 139.326 214.419C139.258 215.644 139.514 216.866 140.07 217.96Z" fill="#94FC7D"/>
<path opacity="0.46" d="M140.07 217.96C144.333 226.435 153.682 237.803 173.515 239.894L177.757 218.579C177.757 218.579 162.674 209.048 146.719 207.871C145.494 207.792 144.27 208.038 143.171 208.584C142.072 209.131 141.138 209.959 140.463 210.984C139.787 212.008 139.395 213.194 139.326 214.419C139.258 215.644 139.514 216.866 140.07 217.96Z" fill="white"/>
<path d="M198.758 201.72C198.463 201.649 198.159 195.194 198.94 195.793C199.448 196.279 199.801 196.903 199.955 197.589C199.955 197.589 199.955 193.022 202.31 193.529C204.665 194.037 205.467 199.294 204.533 202.989L198.758 201.923" fill="#F4A28C"/>
<path d="M143.51 188.525C143.835 190.91 143.835 193.327 143.51 195.711C143.455 195.991 143.344 196.258 143.185 196.495C143.027 196.732 142.823 196.936 142.585 197.094C142.347 197.253 142.081 197.363 141.801 197.418C141.521 197.473 141.232 197.473 140.953 197.417C140.038 197.286 139.18 196.895 138.482 196.291C137.784 195.686 137.274 194.893 137.014 194.006L135.522 190.312C135.302 189.539 135.326 188.718 135.591 187.96C135.857 187.202 136.35 186.545 137.004 186.079C139.379 184.161 143.277 185.866 143.51 188.525Z" fill="#F4A28C"/>
<path d="M135.817 190.951L134.346 205.039L142.171 205.293L140.101 194.94L135.817 190.951Z" fill="#F4A28C"/>
<path d="M142.456 188.738C141.123 188.854 139.781 188.82 138.456 188.637C138.874 189.204 139.116 189.881 139.154 190.584C139.192 191.288 139.024 191.987 138.67 192.595C138.336 193.19 137.807 193.649 137.171 193.896C136.536 194.142 135.835 194.16 135.188 193.945L134.965 188.403C134.899 187.606 135.054 186.805 135.412 186.089C135.77 185.374 136.317 184.77 136.995 184.343C137.57 183.965 138.171 183.626 138.791 183.328C140.354 182.598 142.75 183.542 144.13 182.384C144.266 182.261 144.433 182.177 144.613 182.141C144.793 182.105 144.979 182.119 145.152 182.18C145.325 182.242 145.478 182.349 145.594 182.49C145.711 182.632 145.787 182.802 145.815 182.983C146.15 184.658 145.998 187.327 143.785 188.373C143.364 188.563 142.915 188.686 142.456 188.738Z" fill="#24285B"/>
<path d="M139.126 192.433C139.126 192.433 139.004 190.778 137.756 190.971C136.507 191.164 136.68 193.57 138.385 193.702L139.126 192.433Z" fill="#F4A28C"/>
<path d="M143.755 191.215L145.044 192.808C145.117 192.9 145.166 193.008 145.187 193.124C145.207 193.239 145.198 193.358 145.161 193.469C145.123 193.58 145.059 193.68 144.973 193.76C144.887 193.839 144.782 193.896 144.668 193.925L143.034 194.321L143.755 191.215Z" fill="#F4A28C"/>
<path opacity="0.31" d="M140.649 197.183C139.664 196.991 138.757 196.514 138.04 195.812C138.448 197.822 139.601 199.602 141.268 200.796L140.649 197.183Z" fill="#CE8172"/>
<path d="M161.273 264.345C163.922 258.692 169.596 244.299 168.165 227.156C166.318 204.978 141.958 205.079 141.958 205.079L138.486 204.968C133.944 204.782 129.46 206.036 125.674 208.552C121.887 211.068 118.993 214.716 117.405 218.975C111.873 234.301 121.038 255.789 125.271 264.386L161.273 264.345Z" fill="#94FC7D"/>
<path opacity="0.08" d="M125.18 264.346H137.665C136.731 261.666 136.01 256.966 136.863 248.918C138.578 232.962 133.909 216.488 133.909 216.488C116.116 217.138 121.516 254.967 122.521 258.337C123.242 260.409 124.132 262.418 125.18 264.346Z" fill="black"/>
<path d="M122.652 210.541C115.111 216.296 105.682 227.582 107.306 247.456L129.016 247.679C129.016 247.679 135.583 231.094 133.777 215.199C133.628 213.984 133.16 212.829 132.421 211.853C131.682 210.876 130.697 210.113 129.567 209.639C128.438 209.166 127.203 209.001 125.989 209.159C124.774 209.317 123.623 209.794 122.652 210.541Z" fill="#94FC7D"/>
<path opacity="0.46" d="M122.652 210.541C115.111 216.296 105.682 227.582 107.306 247.456L129.016 247.679C129.016 247.679 135.583 231.094 133.777 215.199C133.628 213.984 133.16 212.829 132.421 211.853C131.682 210.876 130.697 210.113 129.567 209.639C128.438 209.166 127.203 209.001 125.989 209.159C124.774 209.317 123.623 209.794 122.652 210.541Z" fill="white"/>
<path d="M121.617 264.345C122.159 258.607 123.548 252.98 125.738 247.649L109.356 247.476C109.323 253.109 109.588 258.74 110.148 264.345H121.617Z" fill="#F4A28C"/>
<path d="M292.939 47.5312C292.939 47.5312 299.638 41.8573 304.916 45.8158C310.194 49.7743 306.601 65.8012 318.111 62.1167C318.111 62.1167 305.637 72.4596 296.908 55.57L292.939 47.5312Z" fill="#24285B"/>
<path d="M298.288 58.5135C298.288 58.5135 302.846 57.874 300.958 51.6622C299.07 45.4504 293.924 45.6737 292.452 47.3079L298.288 58.5135Z" fill="#C5FDB9"/>
<path d="M284.667 55.1538C284.982 58.1592 285.699 61.1086 286.798 63.9234C286.952 64.2485 287.168 64.54 287.434 64.7813C287.7 65.0226 288.012 65.209 288.35 65.3297C288.689 65.4504 289.048 65.5031 289.407 65.4847C289.766 65.4663 290.117 65.3773 290.442 65.2226C291.514 64.7839 292.438 64.0486 293.107 63.1029C293.776 62.1573 294.161 61.0406 294.218 59.8837L294.918 54.9102C294.952 53.9015 294.673 52.907 294.118 52.0636C293.564 51.2202 292.762 50.5694 291.822 50.2006C288.402 48.6172 284.2 51.8754 284.667 55.1538Z" fill="#F4A28C"/>
<path d="M296.034 57.6812L299.567 75.129L289.812 76.3876L291.122 63.5174L296.034 57.6812Z" fill="#F4A28C"/>
<path d="M285.215 58.5342L284.129 60.8788C284.068 61.0117 284.041 61.1579 284.051 61.304C284.061 61.45 284.107 61.5911 284.186 61.7144C284.265 61.8377 284.374 61.9392 284.502 62.0096C284.63 62.08 284.774 62.117 284.921 62.1171H287.032L285.215 58.5342Z" fill="#F4A28C"/>
<path opacity="0.31" d="M291.092 63.8831C292.239 63.5203 293.267 62.8539 294.066 61.9546C294.066 61.9546 295.193 65.6796 290.717 67.5675L291.092 63.8831Z" fill="#CE8172"/>
<path d="M295.669 57.7627C295.669 57.7627 295.314 55.7327 296.887 55.5703C298.46 55.4079 298.988 58.4022 296.948 59.0822L295.669 57.7627Z" fill="#F4A28C"/>
<path d="M285.743 54.6872C287.489 54.7754 289.239 54.573 290.919 54.0883C290.919 54.0883 292.706 59.955 297.628 60.9193C297.628 60.9193 301.12 51.4595 295.192 48.6175C290.239 46.2424 286.494 44.05 283.073 47.9476C282.574 48.5094 282.241 49.1986 282.111 49.9386C281.98 50.6786 282.057 51.4402 282.334 52.1388C282.611 52.8374 283.076 53.4455 283.678 53.8954C284.28 54.3453 284.994 54.6194 285.743 54.6872Z" fill="#24285B"/>
<path d="M277.552 128.833C277.552 128.833 277.237 166.388 251.832 168.865C226.426 171.341 211.699 121.626 211.546 121.16C211.171 119.881 209.1 118.703 208.359 117.506C207.322 115.81 206.777 113.86 206.786 111.872C206.778 111.658 206.823 111.445 206.918 111.253C207.025 111.112 207.174 111.008 207.343 110.955C207.512 110.902 207.694 110.904 207.862 110.959C208.201 111.072 208.512 111.255 208.775 111.497C208.43 110.342 208.269 109.139 208.298 107.934C208.369 105.386 210.328 102.544 212.541 105.285C213.535 106.719 214.296 108.302 214.794 109.974C215.454 111.761 216.012 113.598 216.53 115.435C216.659 116.296 216.883 117.141 217.2 117.952C217.2 117.952 231.948 143.865 244.24 145.875C256.531 147.884 246.381 107.416 274.05 87.6544C301.719 67.8923 277.552 128.833 277.552 128.833Z" fill="#F4A28C"/>
<path d="M291.184 57.2449C291.184 57.2449 291.184 54.819 293.112 54.9814C295.041 55.1438 295.355 57.9452 293.112 59.3256L291.184 57.2449Z" fill="#F4A28C"/>
<path d="M299.567 75.1294L289.813 76.388C289.813 76.388 237.033 101.763 267.239 137.42C269.793 140.391 271.425 144.042 271.939 147.925L274.679 169.839H314.335C314.335 169.839 371.612 87.9285 299.567 75.1294Z" fill="#94FC7D"/>
<path opacity="0.08" d="M299.283 95.4189C299.283 95.4189 288.189 112.227 303.393 128.143C318.598 144.058 309.778 157.933 292.452 147.032C275.126 136.131 272.324 150.341 272.324 150.341L273.339 159.262L300.308 158.958L330.189 159.07L340.705 134.141L299.283 95.4189Z" fill="black"/>
<path d="M331.499 196.412L323.105 159.263H273.36L267.199 196.412H331.499Z" fill="#24285B"/>
<path d="M299.283 95.4189C298.664 83.7058 312.265 76.7429 321.765 83.6144C334.595 92.9017 352.794 108.695 347.83 149.732C341.801 199.467 279.409 147.915 279.409 147.915L281.987 141.348C281.987 141.348 316.284 162.784 325.49 149.346C328.322 145.205 324.475 138.942 321.522 133.979C316.244 125.006 300.034 109.71 299.283 95.4189Z" fill="#F4A28C"/>
<path d="M281.744 141.378C281.46 139.216 277.684 136.06 276.141 134.781C275.69 134.356 275.154 134.031 274.568 133.827C274.272 133.731 273.956 133.718 273.654 133.789C273.351 133.861 273.074 134.014 272.853 134.233C272.664 134.531 272.541 134.867 272.492 135.217C272.443 135.567 272.469 135.924 272.569 136.263C272.964 138.719 273.452 141.997 274.771 144.149C275.106 144.697 278.994 147.935 279.41 147.001C280.13 145.418 281.369 143.601 281.724 141.926C281.76 141.746 281.767 141.561 281.744 141.378Z" fill="#F4A28C"/>
<path d="M303.394 75.8602C303.394 75.8602 304.744 71.6479 296.959 70.7852C289.174 69.9224 282.962 73.211 285.52 78.7225C285.52 78.7428 291.386 83.4118 303.394 75.8602Z" fill="#94FC7D"/>
<path opacity="0.46" d="M303.394 75.8602C303.394 75.8602 304.744 71.6479 296.959 70.7852C289.174 69.9224 282.962 73.211 285.52 78.7225C285.52 78.7428 291.386 83.4118 303.394 75.8602Z" fill="white"/>
<path d="M276.406 148.033L280.423 151.282L286.602 143.643L282.585 140.394L276.406 148.033Z" fill="#24285B"/>
</svg>
