<svg width="255" height="59" viewBox="0 0 255 59" fill="none" xmlns="http://www.w3.org/2000/svg">
<path d="M93.472 29L88.528 21.632V29H83.2V12.008H88.528V19.16L93.4 12.008H99.424L93.568 20.144L99.808 29H93.472ZM109.861 29L106.669 22.904H106.645V29H101.317V12.008H109.237C110.613 12.008 111.789 12.256 112.765 12.752C113.741 13.232 114.469 13.896 114.949 14.744C115.445 15.576 115.693 16.52 115.693 17.576C115.693 18.712 115.373 19.72 114.733 20.6C114.109 21.48 113.205 22.112 112.021 22.496L115.717 29H109.861ZM106.645 19.352H108.757C109.269 19.352 109.653 19.24 109.909 19.016C110.165 18.776 110.293 18.408 110.293 17.912C110.293 17.464 110.157 17.112 109.885 16.856C109.629 16.6 109.253 16.472 108.757 16.472H106.645V19.352ZM137.819 12.008V29H132.515V20.528L129.899 29H125.339L122.723 20.528V29H117.395V12.008H123.923L127.667 22.208L131.315 12.008H137.819ZM161.414 12.008L155.702 29H148.814L143.102 12.008H148.766L152.27 23.696L155.75 12.008H161.414ZM167.934 16.256V18.344H173.214V22.352H167.934V24.752H173.934V29H162.606V12.008H173.934V16.256H167.934ZM192.238 29H186.91L181.27 20.456V29H175.942V12.008H181.27L186.91 20.696V12.008H192.238V29ZM207.989 12.008V16.232H203.477V29H198.149V16.232H193.685V12.008H207.989ZM214.642 12.008V21.584C214.642 22.368 214.81 22.992 215.146 23.456C215.498 23.904 216.058 24.128 216.826 24.128C217.594 24.128 218.162 23.904 218.53 23.456C218.898 22.992 219.082 22.368 219.082 21.584V12.008H224.386V21.584C224.386 23.2 224.05 24.584 223.378 25.736C222.706 26.872 221.786 27.728 220.618 28.304C219.45 28.88 218.146 29.168 216.706 29.168C215.266 29.168 213.986 28.88 212.866 28.304C211.762 27.728 210.898 26.872 210.274 25.736C209.65 24.6 209.338 23.216 209.338 21.584V12.008H214.642ZM235.228 29L232.036 22.904H232.012V29H226.684V12.008H234.604C235.98 12.008 237.156 12.256 238.132 12.752C239.108 13.232 239.836 13.896 240.316 14.744C240.812 15.576 241.06 16.52 241.06 17.576C241.06 18.712 240.74 19.72 240.1 20.6C239.476 21.48 238.572 22.112 237.388 22.496L241.084 29H235.228ZM232.012 19.352H234.124C234.636 19.352 235.02 19.24 235.276 19.016C235.532 18.776 235.66 18.408 235.66 17.912C235.66 17.464 235.524 17.112 235.252 16.856C234.996 16.6 234.62 16.472 234.124 16.472H232.012V19.352ZM248.091 16.256V18.344H253.371V22.352H248.091V24.752H254.091V29H242.763V12.008H254.091V16.256H248.091Z" fill="white"/>
<path d="M84.1 51.202H87.614V52H83.12V42.214H84.1V51.202ZM95.9286 47.786C95.9286 48.122 95.9192 48.3787 95.9006 48.556H89.5586C89.5866 49.1347 89.7266 49.6293 89.9786 50.04C90.2306 50.4507 90.5619 50.7633 90.9726 50.978C91.3832 51.1833 91.8312 51.286 92.3166 51.286C92.9512 51.286 93.4832 51.132 93.9126 50.824C94.3512 50.516 94.6406 50.1007 94.7806 49.578H95.8166C95.6299 50.3247 95.2286 50.936 94.6126 51.412C94.0059 51.8787 93.2406 52.112 92.3166 52.112C91.5979 52.112 90.9539 51.9533 90.3846 51.636C89.8152 51.3093 89.3672 50.852 89.0406 50.264C88.7232 49.6667 88.5646 48.9713 88.5646 48.178C88.5646 47.3847 88.7232 46.6893 89.0406 46.092C89.3579 45.4947 89.8012 45.0373 90.3706 44.72C90.9399 44.4027 91.5886 44.244 92.3166 44.244C93.0446 44.244 93.6792 44.4027 94.2206 44.72C94.7712 45.0373 95.1912 45.4667 95.4806 46.008C95.7792 46.54 95.9286 47.1327 95.9286 47.786ZM94.9346 47.758C94.9439 47.1887 94.8272 46.7033 94.5846 46.302C94.3512 45.9007 94.0292 45.5973 93.6186 45.392C93.2079 45.1867 92.7599 45.084 92.2746 45.084C91.5466 45.084 90.9259 45.3173 90.4126 45.784C89.8992 46.2507 89.6146 46.9087 89.5586 47.758H94.9346ZM97.2736 48.164C97.2736 47.38 97.4276 46.694 97.7356 46.106C98.0529 45.5087 98.4869 45.0513 99.0376 44.734C99.5976 44.4073 100.228 44.244 100.928 44.244C101.656 44.244 102.281 44.412 102.804 44.748C103.336 45.084 103.718 45.5133 103.952 46.036V44.356H104.932V52H103.952V50.306C103.709 50.8287 103.322 51.2627 102.79 51.608C102.267 51.944 101.642 52.112 100.914 52.112C100.223 52.112 99.5976 51.9487 99.0376 51.622C98.4869 51.2953 98.0529 50.8333 97.7356 50.236C97.4276 49.6387 97.2736 48.948 97.2736 48.164ZM103.952 48.178C103.952 47.562 103.826 47.0207 103.574 46.554C103.322 46.0873 102.976 45.728 102.538 45.476C102.108 45.224 101.632 45.098 101.11 45.098C100.568 45.098 100.083 45.2193 99.6536 45.462C99.2242 45.7047 98.8836 46.0593 98.6316 46.526C98.3889 46.9833 98.2676 47.5293 98.2676 48.164C98.2676 48.7893 98.3889 49.34 98.6316 49.816C98.8836 50.2827 99.2242 50.642 99.6536 50.894C100.083 51.1367 100.568 51.258 101.11 51.258C101.632 51.258 102.108 51.132 102.538 50.88C102.976 50.628 103.322 50.2687 103.574 49.802C103.826 49.3353 103.952 48.794 103.952 48.178ZM106.721 48.164C106.721 47.38 106.879 46.694 107.197 46.106C107.514 45.5087 107.948 45.0513 108.499 44.734C109.059 44.4073 109.689 44.244 110.389 44.244C111.061 44.244 111.667 44.4073 112.209 44.734C112.75 45.0607 113.147 45.4853 113.399 46.008V41.64H114.379V52H113.399V50.292C113.165 50.824 112.783 51.2627 112.251 51.608C111.719 51.944 111.093 52.112 110.375 52.112C109.675 52.112 109.045 51.9487 108.485 51.622C107.934 51.2953 107.5 50.8333 107.183 50.236C106.875 49.6387 106.721 48.948 106.721 48.164ZM113.399 48.178C113.399 47.562 113.273 47.0207 113.021 46.554C112.769 46.0873 112.423 45.728 111.985 45.476C111.555 45.224 111.079 45.098 110.557 45.098C110.015 45.098 109.53 45.2193 109.101 45.462C108.671 45.7047 108.331 46.0593 108.079 46.526C107.836 46.9833 107.715 47.5293 107.715 48.164C107.715 48.7893 107.836 49.34 108.079 49.816C108.331 50.2827 108.671 50.642 109.101 50.894C109.53 51.1367 110.015 51.258 110.557 51.258C111.079 51.258 111.555 51.132 111.985 50.88C112.423 50.628 112.769 50.2687 113.021 49.802C113.273 49.3353 113.399 48.794 113.399 48.178ZM117.106 42.914C116.91 42.914 116.742 42.844 116.602 42.704C116.462 42.564 116.392 42.3913 116.392 42.186C116.392 41.9807 116.462 41.8127 116.602 41.682C116.742 41.542 116.91 41.472 117.106 41.472C117.302 41.472 117.47 41.542 117.61 41.682C117.75 41.8127 117.82 41.9807 117.82 42.186C117.82 42.3913 117.75 42.564 117.61 42.704C117.47 42.844 117.302 42.914 117.106 42.914ZM117.596 44.356V52H116.616V44.356H117.596ZM123.399 44.216C124.314 44.216 125.061 44.5007 125.639 45.07C126.218 45.63 126.507 46.4467 126.507 47.52V52H125.541V47.632C125.541 46.8013 125.331 46.1667 124.911 45.728C124.501 45.2893 123.936 45.07 123.217 45.07C122.48 45.07 121.892 45.3033 121.453 45.77C121.015 46.2367 120.795 46.9227 120.795 47.828V52H119.815V44.356H120.795V45.658C121.038 45.1913 121.388 44.8367 121.845 44.594C122.303 44.342 122.821 44.216 123.399 44.216ZM131.881 44.244C132.599 44.244 133.225 44.412 133.757 44.748C134.289 45.084 134.671 45.5087 134.905 46.022V44.356H135.885V52.196C135.885 52.896 135.731 53.5167 135.423 54.058C135.124 54.5993 134.704 55.0147 134.163 55.304C133.621 55.6027 133.005 55.752 132.315 55.752C131.335 55.752 130.518 55.5187 129.865 55.052C129.221 54.5853 128.819 53.9507 128.661 53.148H129.627C129.795 53.68 130.112 54.1047 130.579 54.422C131.055 54.7393 131.633 54.898 132.315 54.898C132.809 54.898 133.253 54.7907 133.645 54.576C134.037 54.3707 134.345 54.0627 134.569 53.652C134.793 53.2413 134.905 52.756 134.905 52.196V50.306C134.662 50.8287 134.275 51.2627 133.743 51.608C133.22 51.944 132.599 52.112 131.881 52.112C131.181 52.112 130.551 51.9487 129.991 51.622C129.44 51.2953 129.006 50.8333 128.689 50.236C128.381 49.6387 128.227 48.948 128.227 48.164C128.227 47.38 128.381 46.694 128.689 46.106C129.006 45.5087 129.44 45.0513 129.991 44.734C130.551 44.4073 131.181 44.244 131.881 44.244ZM134.905 48.178C134.905 47.562 134.779 47.0207 134.527 46.554C134.275 46.0873 133.929 45.728 133.491 45.476C133.061 45.224 132.585 45.098 132.063 45.098C131.521 45.098 131.036 45.2193 130.607 45.462C130.177 45.7047 129.837 46.0593 129.585 46.526C129.342 46.9833 129.221 47.5293 129.221 48.164C129.221 48.7893 129.342 49.34 129.585 49.816C129.837 50.2827 130.177 50.642 130.607 50.894C131.036 51.1367 131.521 51.258 132.063 51.258C132.585 51.258 133.061 51.132 133.491 50.88C133.929 50.628 134.275 50.2687 134.527 49.802C134.779 49.3353 134.905 48.794 134.905 48.178ZM142.454 42.914C142.258 42.914 142.09 42.844 141.95 42.704C141.81 42.564 141.74 42.3913 141.74 42.186C141.74 41.9807 141.81 41.8127 141.95 41.682C142.09 41.542 142.258 41.472 142.454 41.472C142.65 41.472 142.818 41.542 142.958 41.682C143.098 41.8127 143.168 41.9807 143.168 42.186C143.168 42.3913 143.098 42.564 142.958 42.704C142.818 42.844 142.65 42.914 142.454 42.914ZM142.944 44.356V52H141.964V44.356H142.944ZM148.747 44.216C149.662 44.216 150.408 44.5007 150.987 45.07C151.566 45.63 151.855 46.4467 151.855 47.52V52H150.889V47.632C150.889 46.8013 150.679 46.1667 150.259 45.728C149.848 45.2893 149.284 45.07 148.565 45.07C147.828 45.07 147.24 45.3033 146.801 45.77C146.362 46.2367 146.143 46.9227 146.143 47.828V52H145.163V44.356H146.143V45.658C146.386 45.1913 146.736 44.8367 147.193 44.594C147.65 44.342 148.168 44.216 148.747 44.216ZM159.138 45.182V49.928C159.138 50.3947 159.227 50.7167 159.404 50.894C159.581 51.0713 159.894 51.16 160.342 51.16H161.238V52H160.188C159.497 52 158.984 51.8413 158.648 51.524C158.312 51.1973 158.144 50.6653 158.144 49.928V45.182H157.08V44.356H158.144V42.438H159.138V44.356H161.238V45.182H159.138ZM169.77 47.786C169.77 48.122 169.761 48.3787 169.742 48.556H163.4C163.428 49.1347 163.568 49.6293 163.82 50.04C164.072 50.4507 164.404 50.7633 164.814 50.978C165.225 51.1833 165.673 51.286 166.158 51.286C166.793 51.286 167.325 51.132 167.754 50.824C168.193 50.516 168.482 50.1007 168.622 49.578H169.658C169.472 50.3247 169.07 50.936 168.454 51.412C167.848 51.8787 167.082 52.112 166.158 52.112C165.44 52.112 164.796 51.9533 164.226 51.636C163.657 51.3093 163.209 50.852 162.882 50.264C162.565 49.6667 162.406 48.9713 162.406 48.178C162.406 47.3847 162.565 46.6893 162.882 46.092C163.2 45.4947 163.643 45.0373 164.212 44.72C164.782 44.4027 165.43 44.244 166.158 44.244C166.886 44.244 167.521 44.4027 168.062 44.72C168.613 45.0373 169.033 45.4667 169.322 46.008C169.621 46.54 169.77 47.1327 169.77 47.786ZM168.776 47.758C168.786 47.1887 168.669 46.7033 168.426 46.302C168.193 45.9007 167.871 45.5973 167.46 45.392C167.05 45.1867 166.602 45.084 166.116 45.084C165.388 45.084 164.768 45.3173 164.254 45.784C163.741 46.2507 163.456 46.9087 163.4 47.758H168.776ZM171.115 48.178C171.115 47.3847 171.274 46.694 171.591 46.106C171.909 45.5087 172.347 45.0513 172.907 44.734C173.467 44.4073 174.107 44.244 174.825 44.244C175.768 44.244 176.543 44.4773 177.149 44.944C177.765 45.4107 178.162 46.0453 178.339 46.848H177.289C177.159 46.2973 176.874 45.868 176.435 45.56C176.006 45.2427 175.469 45.084 174.825 45.084C174.312 45.084 173.85 45.2007 173.439 45.434C173.029 45.6673 172.702 46.0173 172.459 46.484C172.226 46.9413 172.109 47.506 172.109 48.178C172.109 48.85 172.226 49.4193 172.459 49.886C172.702 50.3527 173.029 50.7027 173.439 50.936C173.85 51.1693 174.312 51.286 174.825 51.286C175.469 51.286 176.006 51.132 176.435 50.824C176.874 50.5067 177.159 50.068 177.289 49.508H178.339C178.162 50.292 177.765 50.922 177.149 51.398C176.533 51.874 175.759 52.112 174.825 52.112C174.107 52.112 173.467 51.9533 172.907 51.636C172.347 51.3093 171.909 50.852 171.591 50.264C171.274 49.6667 171.115 48.9713 171.115 48.178ZM183.789 44.216C184.368 44.216 184.886 44.3373 185.343 44.58C185.81 44.8227 186.174 45.196 186.435 45.7C186.706 46.1947 186.841 46.8013 186.841 47.52V52H185.875V47.632C185.875 46.8013 185.665 46.1667 185.245 45.728C184.835 45.2893 184.27 45.07 183.551 45.07C182.814 45.07 182.226 45.3033 181.787 45.77C181.349 46.2367 181.129 46.9227 181.129 47.828V52H180.149V41.64H181.129V45.658C181.372 45.2007 181.727 44.846 182.193 44.594C182.669 44.342 183.201 44.216 183.789 44.216ZM192.593 44.216C193.507 44.216 194.254 44.5007 194.833 45.07C195.411 45.63 195.701 46.4467 195.701 47.52V52H194.735V47.632C194.735 46.8013 194.525 46.1667 194.105 45.728C193.694 45.2893 193.129 45.07 192.411 45.07C191.673 45.07 191.085 45.3033 190.647 45.77C190.208 46.2367 189.989 46.9227 189.989 47.828V52H189.009V44.356H189.989V45.658C190.231 45.1913 190.581 44.8367 191.039 44.594C191.496 44.342 192.014 44.216 192.593 44.216ZM201.214 52.112C200.495 52.112 199.847 51.9533 199.268 51.636C198.699 51.3093 198.246 50.852 197.91 50.264C197.583 49.6667 197.42 48.9713 197.42 48.178C197.42 47.3847 197.588 46.694 197.924 46.106C198.26 45.5087 198.717 45.0513 199.296 44.734C199.875 44.4073 200.523 44.244 201.242 44.244C201.961 44.244 202.609 44.4073 203.188 44.734C203.776 45.0513 204.233 45.5087 204.56 46.106C204.896 46.694 205.064 47.3847 205.064 48.178C205.064 48.962 204.896 49.6527 204.56 50.25C204.224 50.8473 203.762 51.3093 203.174 51.636C202.586 51.9533 201.933 52.112 201.214 52.112ZM201.214 51.258C201.718 51.258 202.185 51.146 202.614 50.922C203.043 50.6887 203.389 50.3433 203.65 49.886C203.921 49.4193 204.056 48.85 204.056 48.178C204.056 47.506 203.925 46.9413 203.664 46.484C203.403 46.0173 203.057 45.672 202.628 45.448C202.199 45.2147 201.732 45.098 201.228 45.098C200.724 45.098 200.257 45.2147 199.828 45.448C199.399 45.672 199.053 46.0173 198.792 46.484C198.54 46.9413 198.414 47.506 198.414 48.178C198.414 48.85 198.54 49.4193 198.792 49.886C199.053 50.3433 199.394 50.6887 199.814 50.922C200.243 51.146 200.71 51.258 201.214 51.258ZM207.83 41.64V52H206.85V41.64H207.83ZM213.396 52.112C212.677 52.112 212.028 51.9533 211.45 51.636C210.88 51.3093 210.428 50.852 210.092 50.264C209.765 49.6667 209.602 48.9713 209.602 48.178C209.602 47.3847 209.77 46.694 210.106 46.106C210.442 45.5087 210.899 45.0513 211.478 44.734C212.056 44.4073 212.705 44.244 213.424 44.244C214.142 44.244 214.791 44.4073 215.37 44.734C215.958 45.0513 216.415 45.5087 216.742 46.106C217.078 46.694 217.246 47.3847 217.246 48.178C217.246 48.962 217.078 49.6527 216.742 50.25C216.406 50.8473 215.944 51.3093 215.356 51.636C214.768 51.9533 214.114 52.112 213.396 52.112ZM213.396 51.258C213.9 51.258 214.366 51.146 214.796 50.922C215.225 50.6887 215.57 50.3433 215.832 49.886C216.102 49.4193 216.238 48.85 216.238 48.178C216.238 47.506 216.107 46.9413 215.846 46.484C215.584 46.0173 215.239 45.672 214.81 45.448C214.38 45.2147 213.914 45.098 213.41 45.098C212.906 45.098 212.439 45.2147 212.01 45.448C211.58 45.672 211.235 46.0173 210.974 46.484C210.722 46.9413 210.596 47.506 210.596 48.178C210.596 48.85 210.722 49.4193 210.974 49.886C211.235 50.3433 211.576 50.6887 211.996 50.922C212.425 51.146 212.892 51.258 213.396 51.258ZM222.238 44.244C222.957 44.244 223.582 44.412 224.114 44.748C224.646 45.084 225.029 45.5087 225.262 46.022V44.356H226.242V52.196C226.242 52.896 226.088 53.5167 225.78 54.058C225.481 54.5993 225.061 55.0147 224.52 55.304C223.979 55.6027 223.363 55.752 222.672 55.752C221.692 55.752 220.875 55.5187 220.222 55.052C219.578 54.5853 219.177 53.9507 219.018 53.148H219.984C220.152 53.68 220.469 54.1047 220.936 54.422C221.412 54.7393 221.991 54.898 222.672 54.898C223.167 54.898 223.61 54.7907 224.002 54.576C224.394 54.3707 224.702 54.0627 224.926 53.652C225.15 53.2413 225.262 52.756 225.262 52.196V50.306C225.019 50.8287 224.632 51.2627 224.1 51.608C223.577 51.944 222.957 52.112 222.238 52.112C221.538 52.112 220.908 51.9487 220.348 51.622C219.797 51.2953 219.363 50.8333 219.046 50.236C218.738 49.6387 218.584 48.948 218.584 48.164C218.584 47.38 218.738 46.694 219.046 46.106C219.363 45.5087 219.797 45.0513 220.348 44.734C220.908 44.4073 221.538 44.244 222.238 44.244ZM225.262 48.178C225.262 47.562 225.136 47.0207 224.884 46.554C224.632 46.0873 224.287 45.728 223.848 45.476C223.419 45.224 222.943 45.098 222.42 45.098C221.879 45.098 221.393 45.2193 220.964 45.462C220.535 45.7047 220.194 46.0593 219.942 46.526C219.699 46.9833 219.578 47.5293 219.578 48.164C219.578 48.7893 219.699 49.34 219.942 49.816C220.194 50.2827 220.535 50.642 220.964 50.894C221.393 51.1367 221.879 51.258 222.42 51.258C222.943 51.258 223.419 51.132 223.848 50.88C224.287 50.628 224.632 50.2687 224.884 49.802C225.136 49.3353 225.262 48.794 225.262 48.178ZM234.779 44.356L230.243 55.598H229.221L230.705 51.958L227.569 44.356H228.647L231.251 50.88L233.771 44.356H234.779Z" fill="white"/>
<g clip-path="url(#clip0_153_147)">
<path d="M33.974 0C30.6671 5.54385 27.4804 10.8906 24.1966 16.3986C23.3826 15.0546 22.638 13.8092 21.898 12.5728C21.158 11.3363 20.4619 10.1088 19.6918 8.89928C19.4976 8.59913 19.0975 8.2273 18.7876 8.2273C15.7489 8.17578 12.708 8.19594 9.40797 8.19594L34.0295 49.5027L43.874 32.9585C44.2185 33.5633 44.4937 34.0672 44.7874 34.5623C45.9575 36.5334 47.167 38.4866 48.284 40.4869C48.3903 40.7006 48.4485 40.9336 48.4549 41.1707C48.4613 41.4078 48.4156 41.6435 48.321 41.8622C45.65 46.4407 42.9605 51.0079 40.1993 55.5259C37.3619 60.1737 30.6231 60.12 27.8065 55.4385C23.7981 48.768 19.8074 42.0847 15.8345 35.3888C10.9504 27.2085 6.06791 19.0201 1.18692 10.8234C-1.92112 5.59985 1.38811 0 7.58107 0C15.9802 0 24.3824 0 32.7877 0H33.974Z" fill="#828282"/>
<path d="M53.6284 32.8105C52.5785 30.9849 49.5213 25.8264 49.5213 25.8264C49.5213 25.8264 48.9871 24.4578 49.4959 23.6267C52.3588 18.943 55.1408 14.219 57.9482 9.49945C58.1563 9.15002 58.3413 8.78939 58.642 8.25405C58.0893 8.20253 57.6961 8.13757 57.303 8.13757C54.8008 8.13757 52.2964 8.15549 49.7919 8.12189C49.0565 8.12189 48.5986 8.31453 48.2171 8.95963C44.7483 14.8081 41.2286 20.632 37.7621 26.4827C36.7816 28.1357 34.7558 31.4643 34.7558 31.4643L33.995 32.6044C33.995 32.6044 30.2094 26.1668 29.7723 25.5486C29.3352 24.9304 29.326 24.4846 29.7307 23.8104C33.8724 16.9159 38.0997 10.0639 42.0287 3.05515C43.3168 0.741292 44.7298 -0.139004 47.447 0.0200317C51.783 0.270905 56.1491 0.0715503 60.5012 0.0917097C66.6133 0.118589 69.8901 5.59972 66.8491 10.7516C62.7883 17.6058 58.709 24.4503 54.6112 31.2851C54.3453 31.7129 54.0632 32.1363 53.6284 32.8105Z" fill="white"/>
</g>
<defs>
<clipPath id="clip0_153_147">
<rect width="68" height="59" fill="white"/>
</clipPath>
</defs>
</svg>
