<svg width="68" height="59" viewBox="0 0 68 59" fill="none" xmlns="http://www.w3.org/2000/svg">
<g clip-path="url(#clip0_616_25)">
<path d="M33.974 0C30.6671 5.54385 27.4804 10.8906 24.1966 16.3986C23.3826 15.0546 22.638 13.8092 21.898 12.5728C21.158 11.3363 20.4619 10.1088 19.6918 8.89928C19.4976 8.59913 19.0975 8.2273 18.7876 8.2273C15.7489 8.17578 12.708 8.19594 9.40797 8.19594L34.0295 49.5027L43.874 32.9585C44.2185 33.5632 44.4937 34.0672 44.7874 34.5623C45.9575 36.5334 47.167 38.4866 48.284 40.4869C48.3903 40.7006 48.4485 40.9336 48.4549 41.1707C48.4613 41.4078 48.4156 41.6435 48.321 41.8622C45.65 46.4407 42.9605 51.0079 40.1993 55.5259C37.3619 60.1737 30.6231 60.12 27.8065 55.4385C23.7981 48.768 19.8074 42.0847 15.8345 35.3888C10.9504 27.2085 6.06791 19.0201 1.18692 10.8234C-1.92112 5.59985 1.38811 0 7.58107 0C15.9802 0 24.3824 0 32.7877 0H33.974Z" fill="#1A0C2C"/>
<path d="M53.6284 32.8106C52.5785 30.9851 49.5213 25.8265 49.5213 25.8265C49.5213 25.8265 48.9871 24.4579 49.4959 23.6269C52.3588 18.9432 55.1408 14.2191 57.9482 9.49958C58.1563 9.15015 58.3413 8.78951 58.642 8.25417C58.0893 8.20265 57.6961 8.13769 57.303 8.13769C54.8008 8.13769 52.2964 8.15561 49.7919 8.12201C49.0565 8.12201 48.5986 8.31465 48.2171 8.95975C44.7483 14.8082 41.2286 20.6321 37.7621 26.4828C36.7816 28.1359 34.7558 31.4644 34.7558 31.4644L33.995 32.6045C33.995 32.6045 30.2094 26.167 29.7723 25.5487C29.3352 24.9305 29.326 24.4848 29.7307 23.8105C33.8724 16.916 38.0997 10.064 42.0287 3.05527C43.3168 0.741414 44.7298 -0.138882 47.447 0.0201538C51.783 0.271027 56.1491 0.0716724 60.5012 0.0918318C66.6133 0.118711 69.8901 5.59984 66.8491 10.7517C62.7883 17.6059 58.709 24.4504 54.6112 31.2852C54.3453 31.713 54.0632 32.1364 53.6284 32.8106Z" fill="#1A0C2C"/>
</g>
<defs>
<clipPath id="clip0_616_25">
<rect width="68" height="59" fill="white"/>
</clipPath>
</defs>
</svg>
