<svg width="68" height="59" viewBox="0 0 68 59" fill="none" xmlns="http://www.w3.org/2000/svg">
<g clip-path="url(#clip0_153_196)">
<path d="M33.974 0C30.6671 5.54385 27.4804 10.8906 24.1966 16.3986C23.3826 15.0546 22.638 13.8092 21.898 12.5728C21.158 11.3363 20.4619 10.1088 19.6918 8.89928C19.4976 8.59913 19.0975 8.2273 18.7876 8.2273C15.7489 8.17578 12.708 8.19594 9.40797 8.19594L34.0295 49.5027L43.874 32.9585C44.2185 33.5633 44.4937 34.0672 44.7874 34.5623C45.9575 36.5334 47.167 38.4866 48.284 40.4869C48.3903 40.7006 48.4485 40.9336 48.4549 41.1707C48.4613 41.4078 48.4156 41.6435 48.321 41.8622C45.65 46.4407 42.9605 51.0079 40.1993 55.5259C37.3619 60.1737 30.6231 60.12 27.8065 55.4385C23.7981 48.768 19.8074 42.0847 15.8345 35.3888C10.9504 27.2085 6.06791 19.0201 1.18692 10.8234C-1.92112 5.59985 1.38811 0 7.58107 0C15.9802 0 24.3824 0 32.7877 0H33.974Z" fill="#3F702F"/>
<path d="M53.6284 32.8107C52.5785 30.9852 49.5213 25.8266 49.5213 25.8266C49.5213 25.8266 48.9871 24.458 49.4959 23.627C52.3588 18.9433 55.1408 14.2192 57.9482 9.4997C58.1563 9.15027 58.3413 8.78964 58.642 8.25429C58.0893 8.20277 57.6961 8.13782 57.303 8.13782C54.8008 8.13782 52.2964 8.15573 49.7919 8.12214C49.0565 8.12214 48.5986 8.31477 48.2171 8.95987C44.7483 14.8084 41.2286 20.6322 37.7621 26.4829C36.7816 28.136 34.7558 31.4645 34.7558 31.4645L33.995 32.6047C33.995 32.6047 30.2094 26.1671 29.7723 25.5489C29.3352 24.9306 29.326 24.4849 29.7307 23.8107C33.8724 16.9161 38.0997 10.0642 42.0287 3.05539C43.3168 0.741536 44.7298 -0.13876 47.447 0.0202758C51.783 0.271149 56.1491 0.0717944 60.5012 0.0919539C66.6133 0.118833 69.8901 5.59996 66.8491 10.7518C62.7883 17.606 58.709 24.4505 54.6112 31.2853C54.3453 31.7132 54.0632 32.1365 53.6284 32.8107Z" fill="white"/>
</g>
<defs>
<clipPath id="clip0_153_196">
<rect width="68" height="59" fill="white"/>
</clipPath>
</defs>
</svg>
